<?xml version="1.0" encoding="utf-8"?>
<!-- Generator: Adobe Illustrator 16.0.0, SVG Export Plug-In . SVG Version: 6.00 Build 0)  -->
<!DOCTYPE svg PUBLIC "-//W3C//DTD SVG 1.1 Tiny//EN" "http://www.w3.org/Graphics/SVG/1.1/DTD/svg11-tiny.dtd">
<svg version="1.1" baseProfile="tiny" id="Layer_1" xmlns="http://www.w3.org/2000/svg" xmlns:xlink="http://www.w3.org/1999/xlink"
	 x="0px" y="0px" width="50px" height="50px" viewBox="0 0 50 50" xml:space="preserve">
<path fill="#0084B4" d="M36.422,27.621c0.116-0.176,0.209-0.358,0.3-0.544c0.047-0.097,0.101-0.188,0.142-0.287
	c0.073-0.176,0.121-0.356,0.172-0.539c0.031-0.117,0.072-0.23,0.094-0.35c0.032-0.166,0.043-0.329,0.058-0.496
	c0.013-0.142,0.03-0.283,0.03-0.427c-0.001-0.141-0.019-0.282-0.032-0.423c-0.016-0.168-0.028-0.333-0.061-0.499
	c-0.023-0.115-0.062-0.227-0.093-0.343c-0.054-0.185-0.104-0.368-0.18-0.548c-0.037-0.089-0.088-0.175-0.132-0.264
	c-0.096-0.195-0.195-0.386-0.319-0.569c-0.043-0.064-0.097-0.122-0.143-0.184c-0.116-0.154-0.221-0.313-0.357-0.455L22.271,7.497
	c-1.817-1.892-4.822-1.957-6.713-0.136c-1.895,1.816-1.955,4.821-0.137,6.714l10.492,10.934L15.474,35.99
	c-1.807,1.902-1.735,4.908,0.167,6.716c1.903,1.809,4.909,1.73,6.715-0.169L35.918,28.27c0.125-0.131,0.22-0.279,0.326-0.42
	C36.302,27.771,36.368,27.7,36.422,27.621z"/>
</svg>
