<?xml version="1.0" encoding="utf-8"?>
<!-- Generator: Adobe Illustrator 16.0.0, SVG Export Plug-In . SVG Version: 6.00 Build 0)  -->
<!DOCTYPE svg PUBLIC "-//W3C//DTD SVG 1.1 Tiny//EN" "http://www.w3.org/Graphics/SVG/1.1/DTD/svg11-tiny.dtd">
<svg version="1.1" baseProfile="tiny" id="Layer_1" xmlns="http://www.w3.org/2000/svg" xmlns:xlink="http://www.w3.org/1999/xlink"
	 x="0px" y="0px" width="50px" height="50px" viewBox="0 0 50 50" xml:space="preserve">
<g>
	<path fill="#61BB4D" d="M16.298,19.537c0.148-0.102,0.287-0.221,0.426-0.335c0.276,0.256,0.646,0.42,1.039,0.42
		c0.42,0,0.801-0.167,1.081-0.438c0.149,0.126,0.29,0.251,0.448,0.347c0.1,0.062,0.286,0.095,0.372,0.042
		c0.101-0.062,0.162-0.226,0.19-0.357c0.03-0.125-0.043-0.228-0.199-0.176c-0.156,0.05-0.212-0.042-0.239-0.161
		c-0.024-0.102-0.03-0.207-0.045-0.313c-0.058-0.445-0.071-0.903-0.184-1.335h-0.019c-0.154-0.637-0.724-1.113-1.412-1.113
		c-0.763,0-1.381,0.587-1.443,1.333L16.3,17.453c-0.062,0.348-0.074,1.001-0.115,1.354c-0.014,0.121-0.037,0.282-0.229,0.237
		c-0.23-0.054-0.253,0.082-0.23,0.244C15.772,19.6,16.035,19.714,16.298,19.537z"/>
	<path fill="#61BB4D" d="M25.208,26.664c0.685,0.001,1.266-0.58,1.266-1.275c0.003-0.742-0.516-1.261-1.255-1.26
		c-0.714,0-1.29,0.555-1.29,1.245C23.926,26.04,24.537,26.656,25.208,26.664z"/>
	<path fill="#61BB4D" d="M32.009,18.975c0.902,0.008,1.559-0.647,1.561-1.546c0-0.933-0.669-1.624-1.563-1.615
		c-0.863,0.008-1.534,0.702-1.539,1.594C30.458,18.302,31.116,18.968,32.009,18.975z"/>
	<path fill="#61BB4D" d="M35.87,21.334c0-1.003-0.62-1.864-1.624-1.93c-1.5-0.099-3.012-0.083-4.514,0.002
		c-0.85,0.049-1.547,0.934-1.558,1.79c-0.026,1.549-0.011,3.096-0.003,4.645c0,0.437,0.242,0.634,0.663,0.63
		c0.442,0,0.62-0.227,0.613-0.666c-0.011-1.163-0.016-2.323,0.013-3.483c0.007-0.19,0.192-0.376,0.293-0.559
		c0.067,0.17,0.155,0.339,0.202,0.518c0.029,0.115,0.007,0.245,0.007,0.368c0,3.501,0.003,7.003-0.007,10.504
		c0,0.499,0.163,0.861,0.665,0.993c0.646,0.171,1.128-0.229,1.128-0.923c0.007-2.007,0-4.013,0.007-6.018
		c0-0.151,0.002-0.324,0.067-0.451c0.032-0.066,0.284-0.104,0.316-0.063c0.082,0.108,0.14,0.266,0.14,0.405
		c0.008,2.04,0.002,4.081,0.008,6.122c0,0.633,0.328,0.953,0.929,0.944c0.562-0.006,0.857-0.332,0.857-0.947
		c0.005-1.814,0.005-3.626,0.005-5.438c0-1.794,0-3.59,0-5.383c0-0.123-0.029-0.253,0.008-0.364
		c0.032-0.101,0.157-0.264,0.203-0.252c0.111,0.027,0.235,0.121,0.286,0.225c0.051,0.099,0.021,0.239,0.021,0.364
		c0,1.089-0.004,2.182-0.004,3.271c0.007,0.668,0.144,0.839,0.661,0.836c0.495-0.007,0.617-0.168,0.617-0.815
		C35.87,24.218,35.872,22.774,35.87,21.334z"/>
	<path fill="#61BB4D" d="M21.935,24.679c-0.314-1.051-0.609-2.113-0.953-3.155c-0.394-1.199-0.97-1.594-2.211-1.596
		c-0.632,0-1.267,0.001-1.898,0c-1.292-0.002-1.913,0.419-2.305,1.639c-0.376,1.176-0.718,2.367-1.064,3.552
		c-0.118,0.403-0.152,0.822,0.333,1.015c0.438,0.174,0.756-0.055,0.933-0.648c0.286-0.948,0.551-1.906,0.836-2.856
		c0.065-0.215,0.178-0.419,0.267-0.627c0.065,0.012,0.126,0.025,0.188,0.037c0,0.185,0.039,0.376-0.006,0.547
		c-0.229,0.855-0.487,1.707-0.73,2.559c-0.333,1.163-0.662,2.33-1.01,3.555c0.605,0,1.143,0,1.713,0
		c0,1.507-0.001,2.967,0.001,4.424c0,0.662,0.285,1.042,0.769,1.04c0.513-0.004,0.719-0.282,0.72-0.994
		c0-1.356,0.01-2.709-0.004-4.066c-0.003-0.349,0.099-0.499,0.506-0.384c0.006,0.113,0.015,0.197,0.019,0.286
		c0,1.457-0.006,2.917,0.002,4.377c0.002,0.452,0.339,0.785,0.75,0.781c0.438-0.006,0.712-0.302,0.718-0.793
		c0.004-0.472,0-0.947,0-1.421c0-1.068,0-2.137,0-3.268c0.605,0,1.152,0,1.72,0c-0.028-0.169-0.039-0.274-0.068-0.375
		c-0.536-1.857-1.079-3.715-1.607-5.575c-0.06-0.214-0.032-0.452-0.045-0.679c0.06-0.012,0.118-0.021,0.178-0.036
		c0.083,0.143,0.196,0.274,0.241,0.428c0.192,0.633,0.361,1.274,0.545,1.913c0.133,0.448,0.25,0.907,0.417,1.347
		c0.139,0.375,0.442,0.557,0.842,0.432c0.417-0.134,0.466-0.487,0.395-0.859C22.086,25.074,21.994,24.878,21.935,24.679z"/>
	<path fill="#61BB4D" d="M27.688,25.412c-0.394-0.202-0.611,0.062-0.723,0.369c-0.301,0.836-0.819,1.205-1.584,1.252
		c-0.062,0.001-0.122,0.009-0.179,0.009c-0.058,0-0.12-0.008-0.179-0.009c-0.768-0.048-1.284-0.416-1.586-1.252
		c-0.111-0.307-0.329-0.571-0.72-0.369c-0.417,0.211-0.293,0.545-0.141,0.854c0.292,0.596,0.643,1.164,0.907,1.772
		c0.152,0.354,0.261,0.759,0.271,1.145c0.038,1.369,0.018,2.739,0.029,4.109c0.003,0.573,0.256,0.882,0.679,0.879
		c0.453-0.006,0.65-0.267,0.652-0.88c0.001-0.58,0-1.159,0-1.739c0.029,0,0.058,0,0.087-0.004c0.028,0.004,0.058,0.004,0.087,0.004
		c0,0.58-0.002,1.159,0,1.739c0,0.613,0.198,0.874,0.648,0.88c0.426,0.003,0.679-0.306,0.682-0.879
		c0.014-1.37-0.008-2.74,0.029-4.109c0.008-0.386,0.116-0.791,0.271-1.145c0.265-0.608,0.613-1.177,0.907-1.772
		C27.978,25.958,28.101,25.623,27.688,25.412z"/>
</g>
<path fill="#3682C4" d="M39.619,10.977H10.454c-2.443,0-4.431,1.987-4.431,4.431v19.185c0,2.442,1.987,4.431,4.431,4.431h29.166
	c2.444,0,4.431-1.988,4.431-4.431V15.408C44.05,12.964,42.063,10.977,39.619,10.977z M41.915,34.593
	c0,1.267-1.029,2.296-2.296,2.296H10.454c-1.268,0-2.299-1.029-2.299-2.296V15.408c0-1.268,1.032-2.3,2.299-2.3h29.166
	c1.267,0,2.296,1.032,2.296,2.3V34.593z"/>
</svg>
