<?xml version="1.0" encoding="utf-8"?>
<!-- Generator: Adobe Illustrator 16.0.0, SVG Export Plug-In . SVG Version: 6.00 Build 0)  -->
<!DOCTYPE svg PUBLIC "-//W3C//DTD SVG 1.1 Tiny//EN" "http://www.w3.org/Graphics/SVG/1.1/DTD/svg11-tiny.dtd">
<svg version="1.1" baseProfile="tiny" id="Layer_1" xmlns="http://www.w3.org/2000/svg" xmlns:xlink="http://www.w3.org/1999/xlink"
	 x="0px" y="0px" width="50px" height="50px" viewBox="0 0 50 50" xml:space="preserve">
<path fill-rule="evenodd" fill="#667680" d="M12.745,10.859c0-0.784-0.009-1.512,0.002-2.242c0.016-1.034,0.709-1.804,1.742-1.956
	c0.809-0.12,1.71,0.456,1.99,1.306c0.085,0.261,0.106,0.551,0.113,0.829c0.016,0.672,0.004,1.344,0.004,2.041
	c5.643,0,11.247,0,16.915,0c0-0.737-0.002-1.476,0-2.215c0.004-0.714,0.3-1.276,0.904-1.664c1.141-0.735,2.696-0.057,2.878,1.289
	c0.089,0.665,0.046,1.347,0.06,2.021c0.004,0.179,0.002,0.359,0.002,0.589c0.688,0,1.331-0.008,1.973,0.002
	c2.24,0.036,3.955,1.316,4.496,3.423c0.149,0.574,0.149,1.197,0.149,1.798c0.008,7.523-0.019,15.045,0.014,22.57
	c0.008,2.193-1.418,4.074-3.46,4.555c-0.605,0.143-1.253,0.143-1.882,0.143c-8.972,0.008-17.944,0.012-26.916-0.004
	c-0.821-0.002-1.681-0.01-2.455-0.242c-1.976-0.594-3.155-2.326-3.155-4.393c0.001-7.27-0.004-14.54,0.004-21.809
	c0.001-0.813-0.028-1.645,0.122-2.436c0.41-2.149,2.277-3.613,4.468-3.605C11.373,10.861,12.031,10.859,12.745,10.859z
	 M8.521,20.909c0,0.16,0,0.271,0,0.381c-0.002,2.955-0.003,5.908-0.004,8.863c-0.001,2.826,0.015,5.654-0.007,8.48
	c-0.012,1.465,1.137,2.377,2.289,2.305c1.064-0.068,2.136-0.014,3.206-0.014c4.642,0.002,9.283,0.002,13.925,0.002
	c3.854,0,7.708,0.004,11.563-0.008c1.118-0.006,1.954-0.764,2.055-1.881c0.061-0.656,0.033-1.32,0.033-1.98
	c0.004-4.91,0.006-9.818,0.008-14.726c0-0.472,0-0.944,0-1.422C30.536,20.909,19.555,20.909,8.521,20.909z M28.533,27.115
	c1.114-0.363,1.902,0.188,1.851,1.213c-0.027,0.514-0.354,0.918-0.97,1.076c-0.484,0.125-0.986,0.172-1.489,0.256
	c0,0.553,0,1.107,0,1.709c0.212,0,0.396-0.027,0.568,0.006c0.522,0.094,1.06,0.156,1.551,0.34c0.568,0.209,0.735,0.617,0.688,1.299
	c-0.033,0.461-0.336,0.828-0.86,0.973c-0.622,0.17-1.261,0.203-1.854-0.088c-0.46-0.227-0.885-0.523-1.341-0.799
	c-0.358,0.484-0.731,0.992-1.11,1.506c0.973,1.068,2.176,1.5,3.559,1.508c1.137,0.004,2.208-0.205,3.11-0.957
	c1.418-1.182,1.431-3.672-0.61-4.547c-0.157-0.064-0.312-0.139-0.505-0.229c0.118-0.066,0.19-0.109,0.264-0.145
	c0.895-0.441,1.488-1.107,1.512-2.15c0.023-1.084-0.427-1.928-1.38-2.478c-0.651-0.376-1.366-0.486-2.103-0.517
	c-1.371-0.059-2.506,0.46-3.535,1.36c0.421,0.512,0.82,0.998,1.188,1.447C27.578,27.619,28.026,27.279,28.533,27.115z
	 M21.127,33.387c0.968-1.061,1.924-2.127,2.516-3.461c0.951-2.145-0.266-4.492-2.48-4.791c-1.717-0.232-3.118,0.338-4.236,1.613
	c0.425,0.445,0.849,0.889,1.267,1.328c0.352-0.275,0.663-0.563,1.015-0.785c0.535-0.338,1.122-0.367,1.687-0.08
	c0.575,0.291,0.736,0.83,0.696,1.424c-0.021,0.316-0.082,0.652-0.222,0.93c-0.233,0.459-0.491,0.932-0.838,1.305
	c-1.07,1.152-2.188,2.262-3.283,3.393c-0.103,0.107-0.244,0.234-0.253,0.363c-0.033,0.414-0.013,0.834-0.013,1.27
	c2.527,0,4.993,0,7.474,0c0-0.695,0-1.363,0-2.023c-1.265,0-2.506,0-3.78,0C20.83,33.707,20.98,33.547,21.127,33.387z"/>
</svg>
