<?xml version="1.0" encoding="utf-8"?>
<!-- Generator: Adobe Illustrator 16.0.0, SVG Export Plug-In . SVG Version: 6.00 Build 0)  -->
<!DOCTYPE svg PUBLIC "-//W3C//DTD SVG 1.1 Tiny//EN" "http://www.w3.org/Graphics/SVG/1.1/DTD/svg11-tiny.dtd">
<svg version="1.1" baseProfile="tiny" id="Layer_1" xmlns="http://www.w3.org/2000/svg" xmlns:xlink="http://www.w3.org/1999/xlink"
	 x="0px" y="0px" width="50px" height="50px" viewBox="0 0 50 50" xml:space="preserve">
<path fill-rule="evenodd" fill="#667680" d="M12.611,10.766c0-0.789-0.009-1.522,0.002-2.257c0.016-1.04,0.714-1.815,1.753-1.969
	C15.181,6.419,16.088,7,16.369,7.855c0.086,0.263,0.107,0.555,0.114,0.834c0.016,0.677,0.005,1.354,0.005,2.055
	c5.68,0,11.321,0,17.025,0c0-0.742-0.002-1.485,0.001-2.229c0.004-0.719,0.303-1.284,0.909-1.675
	c1.149-0.74,2.716-0.058,2.897,1.298c0.09,0.669,0.046,1.355,0.061,2.033c0.004,0.181,0.001,0.361,0.001,0.594
	c0.693,0,1.341-0.009,1.987,0.002c2.253,0.036,3.979,1.324,4.525,3.445c0.149,0.578,0.149,1.205,0.149,1.81
	c0.008,7.572-0.02,15.145,0.014,22.719c0.009,2.207-1.427,4.102-3.482,4.584c-0.609,0.145-1.262,0.145-1.895,0.145
	c-9.031,0.008-18.062,0.012-27.093-0.004c-0.826-0.002-1.691-0.01-2.471-0.244c-1.989-0.598-3.176-2.342-3.176-4.422
	c0.001-7.318-0.004-14.635,0.004-21.953c0.001-0.818-0.028-1.655,0.123-2.451c0.412-2.164,2.292-3.638,4.497-3.629
	C11.229,10.768,11.893,10.766,12.611,10.766z M8.359,20.881c0,0.161,0,0.272,0,0.384c-0.002,2.973-0.004,5.946-0.005,8.92
	c-0.001,2.846,0.016,5.691-0.007,8.537c-0.012,1.475,1.145,2.393,2.304,2.318c1.071-0.068,2.15-0.014,3.227-0.014
	c4.673,0.002,9.345,0.002,14.017,0.002c3.88,0,7.759,0.004,11.639-0.008c1.126-0.004,1.968-0.768,2.069-1.893
	c0.06-0.66,0.032-1.328,0.032-1.994c0.005-4.941,0.006-9.881,0.009-14.822c0-0.475,0-0.95,0-1.432
	C30.521,20.881,19.466,20.881,8.359,20.881z M28.503,27.129c1.123-0.365,1.916,0.189,1.863,1.221
	c-0.027,0.518-0.358,0.924-0.978,1.084c-0.485,0.125-0.991,0.172-1.498,0.256c0,0.557,0,1.115,0,1.721
	c0.213,0,0.398-0.027,0.573,0.006c0.524,0.096,1.065,0.158,1.56,0.342c0.573,0.211,0.741,0.621,0.692,1.309
	c-0.033,0.463-0.339,0.834-0.866,0.979c-0.627,0.172-1.269,0.205-1.866-0.088c-0.463-0.229-0.891-0.527-1.35-0.805
	c-0.36,0.488-0.736,0.998-1.118,1.516c0.979,1.076,2.19,1.51,3.583,1.518c1.145,0.006,2.222-0.205,3.131-0.963
	c1.427-1.189,1.439-3.695-0.616-4.576c-0.157-0.066-0.313-0.141-0.508-0.23c0.12-0.066,0.191-0.109,0.266-0.145
	c0.901-0.445,1.499-1.115,1.521-2.166c0.023-1.092-0.43-1.939-1.389-2.494c-0.655-0.379-1.375-0.488-2.117-0.52
	c-1.378-0.061-2.521,0.463-3.558,1.369c0.424,0.516,0.826,1.004,1.196,1.455C27.541,27.635,27.993,27.293,28.503,27.129z
	 M21.049,33.441c0.975-1.068,1.937-2.141,2.532-3.484c0.957-2.158-0.268-4.521-2.497-4.822c-1.729-0.232-3.139,0.342-4.264,1.625
	c0.428,0.447,0.854,0.895,1.275,1.336c0.354-0.277,0.667-0.566,1.021-0.791c0.538-0.34,1.129-0.369,1.698-0.08
	c0.578,0.293,0.74,0.836,0.7,1.434c-0.021,0.318-0.082,0.656-0.224,0.936c-0.235,0.463-0.494,0.938-0.844,1.314
	c-1.077,1.16-2.202,2.275-3.305,3.414c-0.104,0.107-0.245,0.236-0.255,0.365c-0.033,0.418-0.013,0.84-0.013,1.279
	c2.544,0,5.025,0,7.522,0c0-0.701,0-1.373,0-2.037c-1.273,0-2.522,0-3.805,0C20.749,33.764,20.9,33.604,21.049,33.441z"/>
</svg>
