<?xml version="1.0" encoding="utf-8"?>
<!-- Generator: Adobe Illustrator 16.0.0, SVG Export Plug-In . SVG Version: 6.00 Build 0)  -->
<!DOCTYPE svg PUBLIC "-//W3C//DTD SVG 1.1 Tiny//EN" "http://www.w3.org/Graphics/SVG/1.1/DTD/svg11-tiny.dtd">
<svg version="1.1" baseProfile="tiny" id="Layer_1" xmlns="http://www.w3.org/2000/svg" xmlns:xlink="http://www.w3.org/1999/xlink"
	 x="0px" y="0px" width="50px" height="50px" viewBox="0 0 50 50" xml:space="preserve">
<path fill="#0084B4" d="M38.999,40.173H11.264c-2.326,0-4.214-1.892-4.214-4.214V17.713c0-2.324,1.889-4.215,4.214-4.215h27.735
	c2.326,0,4.215,1.889,4.215,4.215v18.243C43.214,38.281,41.325,40.173,38.999,40.173z M11.264,15.524
	c-1.208,0-2.187,0.983-2.187,2.188v18.243c0,1.206,0.979,2.188,2.187,2.188h27.735c1.207,0,2.189-0.982,2.189-2.188V17.713
	c0-1.207-0.982-2.188-2.189-2.188H11.264z M35.775,11.232c0-0.595-0.481-1.074-1.074-1.074l-10.083-0.001
	c-0.595,0-1.078,0.482-1.078,1.077l0,0c0,0.595,0.483,1.079,1.078,1.079h10.083C35.294,12.31,35.775,11.827,35.775,11.232
	L35.775,11.232z M17.103,11.232c0-0.595-0.479-1.074-1.075-1.074l-2.614-0.001c-0.594,0-1.077,0.482-1.077,1.077l0,0
	c0,0.595,0.482,1.079,1.077,1.079h2.614C16.622,12.31,17.103,11.827,17.103,11.232L17.103,11.232z M29.66,19.209
	c-4.276,0-7.741,3.465-7.741,7.743c0,4.274,3.465,7.736,7.741,7.736c4.273,0,7.741-3.462,7.741-7.736
	C37.401,22.674,33.934,19.209,29.66,19.209z M29.66,32.524c-3.077,0-5.572-2.497-5.572-5.572c0-3.077,2.495-5.575,5.572-5.575
	c3.079,0,5.574,2.498,5.574,5.575C35.234,30.027,32.737,32.524,29.66,32.524z M33.603,26.952c0,2.177-1.765,3.941-3.942,3.941
	s-3.943-1.765-3.943-3.941c0-2.18,1.766-3.944,3.943-3.944C31.838,23.007,33.603,24.772,33.603,26.952z"/>
</svg>
