<?xml version="1.0" encoding="utf-8"?>
<!-- Generator: Adobe Illustrator 16.0.0, SVG Export Plug-In . SVG Version: 6.00 Build 0)  -->
<!DOCTYPE svg PUBLIC "-//W3C//DTD SVG 1.1 Tiny//EN" "http://www.w3.org/Graphics/SVG/1.1/DTD/svg11-tiny.dtd">
<svg version="1.1" baseProfile="tiny" id="Layer_1" xmlns="http://www.w3.org/2000/svg" xmlns:xlink="http://www.w3.org/1999/xlink"
	 x="0px" y="0px" width="50px" height="50px" viewBox="0 0 50 50" xml:space="preserve">
<path fill-rule="evenodd" fill="#667680" d="M37.437,35.979c-6.624,0-13.17,0-19.805,0c1.773,0.765,2.599,2.049,2.302,3.486
	c-0.307,1.47-1.548,2.516-2.964,2.49c-1.429-0.023-2.634-1.084-2.912-2.561c-0.263-1.396,0.609-2.705,2.269-3.379
	c-0.455-0.074-0.901-0.096-1.311-0.225c-0.732-0.227-1.15-1.009-0.888-1.729c0.273-0.747,0.691-1.441,0.971-2.187
	c0.155-0.417,0.295-0.919,0.208-1.333c-1.266-6.032-2.573-12.056-3.873-18.08c-0.041-0.191-0.12-0.374-0.194-0.598
	c-1.521,0-3.022,0.02-4.525-0.007C5.46,11.836,4.714,10.86,5.134,9.836C5.406,9.174,5.963,8.9,6.628,8.892
	c1.93-0.022,3.862-0.019,5.792-0.001c0.76,0.007,1.278,0.421,1.495,1.145c0.176,0.591,0.29,1.201,0.444,1.856
	c0.309,0,0.607,0,0.904,0c8.879,0,17.757,0,26.636,0c1.685,0,2.18,0.501,2.18,2.207c0,3.585,0.003,7.172,0,10.758
	c-0.002,1.45-0.414,1.908-1.856,2.079c-5.14,0.601-10.283,1.202-15.425,1.802c-2.607,0.306-5.215,0.606-7.823,0.917
	c-0.244,0.026-0.482,0.097-0.813,0.168c0.352,1.054,0.437,2.072-0.288,3.139c0.415,0,0.675,0,0.937,0c6.672,0,13.343,0,20.017,0
	c1.418,0,2.2,0.514,2.226,1.464c0.026,0.93-0.723,1.455-2.173,1.531c-0.023,0.002-0.046,0.017,0.074-0.024
	c0.537,0.5,1.201,0.983,1.685,1.607c0.532,0.688,0.523,1.545,0.262,2.373c-0.375,1.192-1.706,2.113-2.946,2.041
	c-1.424-0.083-2.558-1.111-2.829-2.566C34.869,38.009,35.717,36.731,37.437,35.979z"/>
</svg>
