<?xml version="1.0" encoding="utf-8"?>
<!-- Generator: Adobe Illustrator 16.0.0, SVG Export Plug-In . SVG Version: 6.00 Build 0)  -->
<!DOCTYPE svg PUBLIC "-//W3C//DTD SVG 1.1 Tiny//EN" "http://www.w3.org/Graphics/SVG/1.1/DTD/svg11-tiny.dtd">
<svg version="1.1" baseProfile="tiny" id="Layer_1" xmlns="http://www.w3.org/2000/svg" xmlns:xlink="http://www.w3.org/1999/xlink"
	 x="0px" y="0px" width="50px" height="50px" viewBox="0 0 50 50" xml:space="preserve">
<path fill-rule="evenodd" fill="#FFFFFF" d="M37.217,35.815c-6.665,0-13.251,0-19.926,0c1.783,0.768,2.614,2.06,2.315,3.506
	c-0.308,1.479-1.556,2.532-2.981,2.506c-1.438-0.023-2.65-1.09-2.93-2.575c-0.264-1.405,0.612-2.722,2.283-3.399
	c-0.458-0.075-0.906-0.097-1.319-0.227c-0.737-0.229-1.157-1.015-0.893-1.74c0.274-0.751,0.695-1.45,0.977-2.2
	c0.156-0.419,0.297-0.925,0.21-1.342c-1.274-6.068-2.589-12.129-3.896-18.19c-0.041-0.191-0.122-0.375-0.196-0.602
	c-1.53,0-3.042,0.02-4.552-0.007c-1.264-0.022-2.015-1.003-1.592-2.035c0.274-0.666,0.835-0.941,1.503-0.95
	c1.942-0.022,3.885-0.019,5.828-0.001c0.765,0.006,1.286,0.424,1.505,1.151c0.177,0.595,0.29,1.209,0.447,1.868
	c0.311,0,0.61,0,0.91,0c8.933,0,17.866,0,26.799,0c1.695,0,2.193,0.504,2.193,2.221c0,3.607,0.002,7.216,0,10.823
	c-0.002,1.459-0.417,1.921-1.868,2.091c-5.172,0.605-10.346,1.211-15.52,1.815c-2.623,0.306-5.248,0.609-7.871,0.921
	c-0.246,0.028-0.485,0.098-0.818,0.17c0.354,1.059,0.439,2.084-0.29,3.158c0.417,0,0.679,0,0.941,0c6.713,0,13.425,0,20.139,0
	c1.428,0,2.215,0.518,2.24,1.473c0.024,0.935-0.727,1.463-2.187,1.54c-0.023,0.002-0.047,0.017,0.073-0.025
	c0.542,0.503,1.209,0.989,1.695,1.619c0.536,0.691,0.527,1.554,0.264,2.387c-0.376,1.199-1.716,2.126-2.964,2.054
	c-1.433-0.084-2.573-1.118-2.846-2.583C34.634,37.857,35.487,36.571,37.217,35.815z"/>
</svg>
