<?xml version="1.0" encoding="utf-8"?>
<!-- Generator: Adobe Illustrator 16.0.0, SVG Export Plug-In . SVG Version: 6.00 Build 0)  -->
<!DOCTYPE svg PUBLIC "-//W3C//DTD SVG 1.1 Tiny//EN" "http://www.w3.org/Graphics/SVG/1.1/DTD/svg11-tiny.dtd">
<svg version="1.1" baseProfile="tiny" id="Layer_1" xmlns="http://www.w3.org/2000/svg" xmlns:xlink="http://www.w3.org/1999/xlink"
	 x="0px" y="0px" width="50px" height="50px" viewBox="0 0 50 50" xml:space="preserve">
<g>
	<path fill="#667680" d="M24.99,43.98C14.519,43.98,6,35.462,6,24.991C6,14.52,14.519,6,24.99,6s18.991,8.52,18.991,18.991
		C43.981,35.462,35.462,43.98,24.99,43.98z M24.99,7.921c-9.412,0-17.069,7.658-17.069,17.07c0,9.412,7.658,17.068,17.069,17.068
		c9.413,0,17.07-7.656,17.07-17.068C42.061,15.579,34.403,7.921,24.99,7.921z"/>
</g>
<polygon fill="#667680" points="22.608,16.291 31.309,24.99 22.608,33.689 "/>
</svg>
