<?xml version="1.0" encoding="utf-8"?>
<!-- Generator: Adobe Illustrator 16.0.0, SVG Export Plug-In . SVG Version: 6.00 Build 0)  -->
<!DOCTYPE svg PUBLIC "-//W3C//DTD SVG 1.1 Tiny//EN" "http://www.w3.org/Graphics/SVG/1.1/DTD/svg11-tiny.dtd">
<svg version="1.1" baseProfile="tiny" id="Layer_1" xmlns="http://www.w3.org/2000/svg" xmlns:xlink="http://www.w3.org/1999/xlink"
	 x="0px" y="0px" width="50px" height="50px" viewBox="0 0 50 50" xml:space="preserve">
<path fill="#292F33" d="M26.999,25l10.56-10.559c0.541-0.541,0.541-1.417,0-1.958s-1.417-0.541-1.957,0l-10.56,10.559l-10.56-10.559
	c-0.541-0.541-1.417-0.541-1.958,0c-0.541,0.541-0.541,1.417,0,1.958L23.084,25l-10.56,10.56c-0.541,0.54-0.541,1.416,0,1.957
	s1.417,0.541,1.957,0l10.56-10.56l10.559,10.561c0.541,0.54,1.418,0.54,1.959,0c0.54-0.541,0.54-1.418-0.001-1.958L26.999,25z"/>
</svg>
