<?xml version="1.0" encoding="utf-8"?>
<!-- Generator: Adobe Illustrator 16.0.0, SVG Export Plug-In . SVG Version: 6.00 Build 0)  -->
<!DOCTYPE svg PUBLIC "-//W3C//DTD SVG 1.1 Tiny//EN" "http://www.w3.org/Graphics/SVG/1.1/DTD/svg11-tiny.dtd">
<svg version="1.1" baseProfile="tiny" id="Layer_1" xmlns="http://www.w3.org/2000/svg" xmlns:xlink="http://www.w3.org/1999/xlink"
	 x="0px" y="0px" width="50px" height="50px" viewBox="0 0 50 50" xml:space="preserve">
<path fill="#667680" d="M27.903,25.021L43.446,9.479c0.796-0.796,0.796-2.086,0-2.882c-0.797-0.796-2.086-0.796-2.882,0
	L25.021,22.14L9.479,6.597c-0.796-0.796-2.086-0.796-2.882,0c-0.796,0.796-0.796,2.085,0,2.882L22.14,25.021L6.597,40.565
	c-0.796,0.796-0.796,2.086,0,2.882c0.796,0.796,2.085,0.796,2.882,0l15.542-15.545l15.543,15.545c0.796,0.796,2.085,0.796,2.882,0
	c0.796-0.796,0.796-2.086,0-2.882L27.903,25.021z"/>
</svg>
