<?xml version="1.0" encoding="utf-8"?>
<!-- Generator: Adobe Illustrator 16.0.0, SVG Export Plug-In . SVG Version: 6.00 Build 0)  -->
<!DOCTYPE svg PUBLIC "-//W3C//DTD SVG 1.1 Tiny//EN" "http://www.w3.org/Graphics/SVG/1.1/DTD/svg11-tiny.dtd">
<svg version="1.1" baseProfile="tiny" id="Layer_1" xmlns="http://www.w3.org/2000/svg" xmlns:xlink="http://www.w3.org/1999/xlink"
	 x="0px" y="0px" width="50px" height="50px" viewBox="0 0 50 50" xml:space="preserve">
<g>
	<path fill="#667680" d="M11.234,15.994c0.247-0.167,0.473-0.362,0.701-0.55c0.456,0.422,1.065,0.691,1.713,0.693
		c0.691,0.001,1.32-0.277,1.781-0.725c0.245,0.209,0.48,0.415,0.74,0.574c0.167,0.1,0.472,0.157,0.611,0.072
		c0.168-0.104,0.269-0.375,0.317-0.593c0.048-0.206-0.071-0.374-0.332-0.289c-0.254,0.082-0.346-0.068-0.392-0.266
		c-0.04-0.166-0.05-0.34-0.073-0.513c-0.097-0.735-0.115-1.491-0.304-2.2l-0.03,0.001c-0.255-1.053-1.197-1.837-2.327-1.837
		c-1.256,0-2.277,0.969-2.382,2.197l-0.019,0.003c-0.102,0.573-0.122,1.651-0.19,2.23c-0.022,0.2-0.063,0.466-0.377,0.392
		c-0.38-0.089-0.417,0.135-0.379,0.403C10.368,16.101,10.802,16.29,11.234,15.994z"/>
	<path fill="#667680" d="M25.918,27.74c1.128,0.008,2.087-0.953,2.091-2.1c0.002-1.221-0.854-2.077-2.069-2.075
		c-1.181,0-2.13,0.917-2.131,2.051C23.807,26.717,24.814,27.73,25.918,27.74z"/>
	<path fill="#667680" d="M37.133,15.07c1.482,0.012,2.563-1.066,2.566-2.548c0.004-1.538-1.1-2.678-2.574-2.664
		c-1.422,0.013-2.527,1.159-2.535,2.628C34.578,13.96,35.662,15.059,37.133,15.07z"/>
	<path fill="#667680" d="M43.492,18.957c0-1.654-1.016-3.072-2.676-3.18c-2.471-0.163-4.965-0.137-7.441,0.004
		c-1.4,0.081-2.545,1.541-2.566,2.951c-0.039,2.551-0.012,5.102-0.006,7.655c0.002,0.723,0.402,1.043,1.098,1.037
		c0.73-0.002,1.02-0.373,1.012-1.096c-0.02-1.914-0.025-3.826,0.018-5.74c0.008-0.313,0.316-0.617,0.482-0.922
		c0.115,0.282,0.258,0.56,0.334,0.854c0.049,0.192,0.01,0.404,0.01,0.607c0,5.771,0.006,11.541-0.008,17.314
		c-0.002,0.822,0.266,1.42,1.096,1.637c1.066,0.279,1.861-0.379,1.861-1.52c0.006-3.311,0-6.613,0.006-9.92
		c0-0.254,0.006-0.535,0.117-0.746c0.051-0.105,0.465-0.174,0.518-0.102c0.139,0.178,0.229,0.438,0.229,0.668
		c0.016,3.361,0.004,6.725,0.016,10.092c0,1.041,0.541,1.572,1.529,1.559c0.924-0.014,1.414-0.551,1.414-1.566
		c0.004-2.986,0.004-5.975,0.004-8.959c0-2.959,0-5.917,0-8.875c0-0.201-0.041-0.418,0.016-0.602
		c0.055-0.167,0.256-0.435,0.332-0.415c0.188,0.044,0.393,0.2,0.479,0.371c0.084,0.162,0.031,0.396,0.031,0.599
		c0,1.798-0.006,3.598-0.002,5.393c0.006,1.102,0.232,1.383,1.084,1.375c0.816-0.01,1.016-0.275,1.016-1.34
		C43.496,23.71,43.496,21.334,43.492,18.957z"/>
	<path fill="#667680" d="M20.526,24.472c-0.521-1.734-1.004-3.483-1.569-5.202c-0.649-1.976-1.603-2.626-3.646-2.629
		c-1.045,0-2.088,0.003-3.13,0c-2.129-0.003-3.152,0.689-3.799,2.703c-0.625,1.938-1.185,3.898-1.755,5.854
		c-0.192,0.664-0.25,1.355,0.549,1.669c0.723,0.287,1.246-0.086,1.539-1.066c0.473-1.565,0.907-3.141,1.377-4.707
		c0.108-0.357,0.294-0.692,0.442-1.037c0.104,0.021,0.207,0.042,0.309,0.063c0,0.303,0.066,0.619-0.01,0.901
		c-0.379,1.413-0.802,2.813-1.204,4.219c-0.546,1.916-1.091,3.836-1.666,5.861c1.001,0,1.887,0,2.825,0
		c0,2.482-0.001,4.885,0.002,7.287c0,1.094,0.469,1.721,1.267,1.715c0.847-0.008,1.185-0.465,1.188-1.641
		c0.001-2.232,0.015-4.465-0.01-6.697c-0.004-0.58,0.164-0.826,0.833-0.637c0.011,0.186,0.03,0.326,0.032,0.469
		c0,2.406-0.01,4.813,0.004,7.221c0.005,0.744,0.564,1.295,1.236,1.285c0.722-0.012,1.173-0.498,1.184-1.305
		c0.009-0.783,0.002-1.563,0.002-2.344c0-1.762,0-3.523,0-5.389c0.996,0,1.899,0,2.837,0c-0.05-0.279-0.066-0.451-0.115-0.615
		c-0.885-3.063-1.78-6.124-2.651-9.19c-0.098-0.352-0.05-0.744-0.073-1.12c0.099-0.02,0.196-0.035,0.296-0.056
		c0.134,0.234,0.318,0.452,0.396,0.704c0.317,1.043,0.595,2.099,0.897,3.148c0.217,0.745,0.41,1.5,0.684,2.225
		c0.23,0.613,0.732,0.92,1.388,0.713c0.689-0.221,0.771-0.803,0.654-1.417C20.775,25.122,20.626,24.802,20.526,24.472z"/>
	<path fill="#667680" d="M30.008,25.679c-0.646-0.333-1.006,0.1-1.189,0.608c-0.498,1.379-1.352,1.984-2.611,2.063
		c-0.102,0.002-0.205,0.016-0.298,0.016c-0.095,0-0.199-0.014-0.298-0.016c-1.261-0.078-2.115-0.684-2.612-2.063
		c-0.183-0.508-0.542-0.942-1.188-0.608c-0.684,0.349-0.478,0.903-0.228,1.407c0.483,0.982,1.058,1.922,1.494,2.92
		c0.253,0.584,0.431,1.254,0.449,1.887c0.059,2.262,0.026,4.518,0.044,6.775c0.007,0.941,0.423,1.455,1.123,1.449
		c0.744-0.008,1.069-0.441,1.073-1.451c0.003-0.955,0-1.914,0-2.869c0.048,0,0.095,0,0.143-0.004
		c0.048,0.004,0.093,0.004,0.142,0.004c0,0.955-0.002,1.914,0.004,2.869c0,1.01,0.324,1.443,1.068,1.451
		c0.703,0.006,1.115-0.508,1.123-1.449c0.021-2.258-0.014-4.514,0.047-6.775c0.016-0.633,0.193-1.303,0.447-1.887
		c0.438-0.998,1.01-1.938,1.496-2.92C30.484,26.582,30.689,26.027,30.008,25.679z"/>
</g>
</svg>
