<?xml version="1.0" encoding="utf-8"?>
<!-- Generator: Adobe Illustrator 16.0.0, SVG Export Plug-In . SVG Version: 6.00 Build 0)  -->
<!DOCTYPE svg PUBLIC "-//W3C//DTD SVG 1.1 Tiny//EN" "http://www.w3.org/Graphics/SVG/1.1/DTD/svg11-tiny.dtd">
<svg version="1.1" baseProfile="tiny" id="Layer_1" xmlns="http://www.w3.org/2000/svg" xmlns:xlink="http://www.w3.org/1999/xlink"
	 x="0px" y="0px" width="50px" height="50px" viewBox="0 0 50 50" xml:space="preserve">
<g>
	<path fill="#FFFFFF" d="M11.336,16.06c0.244-0.166,0.469-0.36,0.695-0.546c0.454,0.419,1.057,0.686,1.702,0.687
		c0.686,0.002,1.311-0.274,1.767-0.718c0.244,0.207,0.477,0.411,0.734,0.569c0.166,0.1,0.469,0.156,0.607,0.071
		c0.167-0.103,0.267-0.373,0.315-0.588c0.046-0.204-0.071-0.372-0.33-0.288c-0.252,0.082-0.344-0.067-0.389-0.264
		c-0.04-0.166-0.049-0.337-0.074-0.509c-0.095-0.729-0.114-1.479-0.301-2.185l-0.03,0.001c-0.252-1.046-1.187-1.823-2.31-1.823
		c-1.248,0-2.26,0.961-2.364,2.181l-0.02,0.003c-0.102,0.569-0.121,1.638-0.188,2.213c-0.022,0.198-0.061,0.463-0.375,0.389
		c-0.377-0.088-0.414,0.133-0.376,0.4C10.475,16.166,10.907,16.354,11.336,16.06z"/>
	<path fill="#FFFFFF" d="M25.913,27.719c1.123,0.01,2.074-0.945,2.076-2.084c0.002-1.211-0.848-2.061-2.054-2.059
		c-1.171,0-2.114,0.911-2.115,2.037C23.817,26.703,24.816,27.709,25.913,27.719z"/>
	<path fill="#FFFFFF" d="M37.045,15.142c1.473,0.012,2.545-1.059,2.549-2.529c0.002-1.526-1.094-2.659-2.559-2.644
		c-1.41,0.013-2.508,1.15-2.516,2.608C34.508,14.041,35.584,15.131,37.045,15.142z"/>
	<path fill="#FFFFFF" d="M43.357,19.001c0-1.642-1.012-3.049-2.656-3.156c-2.451-0.163-4.928-0.137-7.385,0.003
		c-1.391,0.081-2.529,1.529-2.549,2.93c-0.041,2.533-0.014,5.065-0.006,7.6c0.002,0.717,0.4,1.033,1.088,1.029
		c0.725-0.002,1.012-0.371,1.004-1.086c-0.02-1.901-0.025-3.8,0.02-5.7c0.008-0.311,0.313-0.612,0.479-0.916
		c0.113,0.281,0.254,0.556,0.33,0.849c0.051,0.191,0.01,0.401,0.01,0.604c0,5.729,0.006,11.453-0.008,17.186
		c-0.002,0.816,0.266,1.41,1.088,1.625c1.059,0.277,1.846-0.375,1.846-1.51c0.008-3.283,0-6.563,0.01-9.846
		c0-0.25,0.004-0.531,0.113-0.74c0.051-0.105,0.463-0.17,0.518-0.1c0.135,0.174,0.225,0.434,0.225,0.662
		c0.016,3.338,0.004,6.676,0.016,10.018c0,1.035,0.541,1.561,1.52,1.549c0.916-0.014,1.404-0.547,1.404-1.555
		c0.002-2.967,0.002-5.932,0.002-8.896c0-2.936,0-5.872,0-8.808c0-0.199-0.041-0.415,0.018-0.598c0.055-0.166,0.25-0.431,0.33-0.412
		c0.182,0.043,0.387,0.199,0.473,0.368c0.084,0.161,0.031,0.394,0.031,0.594c0,1.785-0.006,3.571-0.002,5.354
		c0.006,1.092,0.23,1.373,1.076,1.363c0.809-0.008,1.008-0.271,1.008-1.328C43.361,23.72,43.361,21.36,43.357,19.001z"/>
	<path fill="#FFFFFF" d="M20.559,24.475c-0.517-1.722-0.996-3.457-1.558-5.163c-0.644-1.961-1.59-2.606-3.619-2.61
		c-1.038,0-2.072,0.003-3.106,0c-2.114-0.003-3.129,0.685-3.771,2.683c-0.621,1.924-1.177,3.87-1.743,5.812
		c-0.191,0.658-0.249,1.345,0.546,1.657c0.716,0.285,1.237-0.086,1.527-1.058c0.469-1.555,0.901-3.119,1.367-4.673
		c0.107-0.355,0.292-0.688,0.438-1.029c0.103,0.021,0.206,0.042,0.307,0.063c0,0.3,0.066,0.615-0.01,0.895
		c-0.377,1.402-0.796,2.792-1.195,4.188c-0.543,1.9-1.083,3.809-1.655,5.816c0.995,0,1.873,0,2.805,0
		c0,2.465-0.002,4.852,0.001,7.236c0,1.086,0.466,1.709,1.258,1.701c0.841-0.006,1.177-0.461,1.179-1.627
		c0.001-2.219,0.015-4.436-0.01-6.652c-0.005-0.574,0.162-0.818,0.827-0.629c0.011,0.184,0.031,0.324,0.032,0.465
		c0,2.389-0.01,4.777,0.005,7.17c0.005,0.738,0.559,1.283,1.226,1.273c0.716-0.01,1.165-0.494,1.176-1.293
		c0.007-0.777,0.001-1.553,0.001-2.33c0-1.748,0-3.496,0-5.346c0.988,0,1.885,0,2.815,0c-0.049-0.277-0.066-0.449-0.114-0.613
		c-0.879-3.041-1.767-6.078-2.631-9.122c-0.098-0.348-0.05-0.739-0.072-1.112c0.098-0.019,0.194-0.035,0.292-0.056
		c0.135,0.233,0.318,0.45,0.394,0.699c0.314,1.036,0.591,2.083,0.892,3.125c0.215,0.739,0.406,1.489,0.679,2.209
		c0.228,0.605,0.726,0.912,1.377,0.707c0.684-0.219,0.766-0.798,0.649-1.407C20.807,25.121,20.659,24.803,20.559,24.475z"/>
	<path fill="#FFFFFF" d="M29.973,25.673c-0.643-0.331-1,0.1-1.182,0.606c-0.494,1.367-1.34,1.967-2.594,2.047
		c-0.1,0.002-0.201,0.014-0.294,0.014c-0.094,0-0.198-0.012-0.296-0.014c-1.252-0.08-2.099-0.68-2.594-2.047
		c-0.182-0.506-0.537-0.937-1.179-0.606c-0.678,0.347-0.476,0.899-0.226,1.397c0.48,0.975,1.049,1.908,1.482,2.898
		c0.252,0.582,0.427,1.244,0.446,1.873c0.058,2.242,0.026,4.484,0.044,6.729c0.008,0.936,0.42,1.441,1.114,1.436
		c0.741-0.006,1.063-0.438,1.065-1.439c0.003-0.951,0-1.898,0-2.85c0.048,0,0.095,0,0.143-0.004
		c0.046,0.004,0.093,0.004,0.142,0.004c0,0.951-0.003,1.898,0.002,2.85c0,1.002,0.322,1.434,1.061,1.439
		c0.697,0.006,1.109-0.5,1.117-1.436c0.018-2.244-0.014-4.486,0.045-6.729c0.016-0.629,0.193-1.291,0.445-1.873
		c0.434-0.99,1-1.924,1.484-2.898C30.445,26.572,30.648,26.021,29.973,25.673z"/>
</g>
</svg>
