<?xml version="1.0" encoding="utf-8"?>
<!-- Generator: Adobe Illustrator 16.0.0, SVG Export Plug-In . SVG Version: 6.00 Build 0)  -->
<!DOCTYPE svg PUBLIC "-//W3C//DTD SVG 1.1 Tiny//EN" "http://www.w3.org/Graphics/SVG/1.1/DTD/svg11-tiny.dtd">
<svg version="1.1" baseProfile="tiny" id="Layer_1" xmlns="http://www.w3.org/2000/svg" xmlns:xlink="http://www.w3.org/1999/xlink"
	 x="0px" y="0px" width="50px" height="50px" viewBox="0 0 50 50" xml:space="preserve">
<g>
	<path fill="#5FA8DC" d="M22.076,28.85v-1.201c0-0.912,0.186-1.683,0.558-2.313c0.373-0.628,1.034-1.239,1.984-1.835
		c0.754-0.475,1.296-0.903,1.626-1.284c0.331-0.383,0.496-0.82,0.496-1.313c0-0.391-0.178-0.701-0.53-0.929
		c-0.354-0.228-0.815-0.342-1.383-0.342c-1.406,0-3.049,0.497-4.93,1.495l-1.941-3.799c2.319-1.323,4.739-1.982,7.262-1.982
		c2.078,0,3.707,0.456,4.888,1.368c1.184,0.912,1.773,2.155,1.773,3.728c0,1.127-0.263,2.103-0.787,2.927
		c-0.526,0.824-1.368,1.604-2.521,2.34c-0.979,0.631-1.59,1.095-1.837,1.389c-0.246,0.293-0.37,0.641-0.37,1.04v0.713H22.076z
		 M21.476,33.738c0-0.857,0.248-1.518,0.748-1.984c0.497-0.466,1.23-0.698,2.198-0.698c0.932,0,1.646,0.236,2.144,0.705
		c0.498,0.471,0.747,1.129,0.747,1.978c0,0.846-0.258,1.503-0.774,1.969c-0.518,0.466-1.222,0.698-2.117,0.698
		c-0.921,0-1.643-0.23-2.165-0.69C21.736,35.254,21.476,34.594,21.476,33.738z"/>
</g>
<g>
	<path fill="#5FA8DC" d="M24.917,43.837C14.486,43.837,6,35.351,6,24.919C6,14.487,14.486,6,24.917,6s18.918,8.487,18.918,18.919
		C43.836,35.351,35.349,43.837,24.917,43.837z M24.917,7.914c-9.375,0-17.004,7.628-17.004,17.005
		c0,9.376,7.628,17.004,17.004,17.004c9.376,0,17.004-7.628,17.004-17.004C41.922,15.542,34.294,7.914,24.917,7.914z"/>
</g>
</svg>
