<?xml version="1.0" encoding="utf-8"?>
<!-- Generator: Adobe Illustrator 16.0.0, SVG Export Plug-In . SVG Version: 6.00 Build 0)  -->
<!DOCTYPE svg PUBLIC "-//W3C//DTD SVG 1.1 Tiny//EN" "http://www.w3.org/Graphics/SVG/1.1/DTD/svg11-tiny.dtd">
<svg version="1.1" baseProfile="tiny" id="Layer_1" xmlns="http://www.w3.org/2000/svg" xmlns:xlink="http://www.w3.org/1999/xlink"
	 x="0px" y="0px" width="50px" height="50px" viewBox="0 0 50 50" xml:space="preserve">
<path fill="#667680" d="M45.88,20.441c-0.298,0.575-0.887,0.933-1.535,0.933c-0.275,0-0.552-0.068-0.798-0.196l-18.482-9.621
	L6.446,21.1c-0.837,0.424-1.912,0.07-2.333-0.755c-0.21-0.408-0.249-0.876-0.108-1.316c0.142-0.441,0.446-0.801,0.859-1.013
	l19.502-9.967c0.357-0.2,1.016-0.233,1.496,0.017l19.282,10.038c0.411,0.214,0.714,0.574,0.853,1.016
	C46.137,19.561,46.095,20.031,45.88,20.441z M39.403,23.415h-0.015c-0.051-0.392-0.229-0.756-0.512-1.042
	c-0.355-0.354-0.754-0.534-1.188-0.534c-0.037,0-0.074,0.001-0.098,0.003c-0.483,0-0.938,0.188-1.281,0.53
	c-0.343,0.343-0.531,0.798-0.531,1.282l0.004,14.286c0,0.303-0.247,0.549-0.551,0.549H14.767c-0.304,0-0.55-0.246-0.55-0.549V23.856
	l0.004-0.2c0.001-0.482-0.187-0.938-0.529-1.283c-0.354-0.354-0.753-0.534-1.187-0.534c-0.037,0-0.074,0.001-0.098,0.003
	c-0.484,0-0.939,0.188-1.281,0.53c-0.283,0.284-0.463,0.648-0.515,1.043l-0.018,14.525c0,2.301,1.872,4.172,4.173,4.172h20.466
	c2.301,0,4.173-1.871,4.173-4.172V23.615L39.403,23.415z"/>
</svg>
