<?xml version="1.0" encoding="utf-8"?>
<!-- Generator: Adobe Illustrator 16.0.0, SVG Export Plug-In . SVG Version: 6.00 Build 0)  -->
<!DOCTYPE svg PUBLIC "-//W3C//DTD SVG 1.1 Tiny//EN" "http://www.w3.org/Graphics/SVG/1.1/DTD/svg11-tiny.dtd">
<svg version="1.1" baseProfile="tiny" id="Layer_1" xmlns="http://www.w3.org/2000/svg" xmlns:xlink="http://www.w3.org/1999/xlink"
	 x="0px" y="0px" width="50px" height="50px" viewBox="0 0 50 50" xml:space="preserve">
<g>
	<path fill="#667680" d="M23.339,14.495h3.321v3.146h-3.321V14.495z M23.339,20.234h3.321v15.063h-3.321V20.234z"/>
</g>
<g>
	<path fill="#667680" d="M24.999,43.793c-10.42,0-18.896-8.477-18.896-18.896S14.579,6,24.999,6s18.898,8.478,18.898,18.897
		S35.419,43.793,24.999,43.793z M24.999,7.912c-9.365,0-16.985,7.62-16.985,16.985c0,9.365,7.62,16.985,16.985,16.985
		c9.367,0,16.987-7.62,16.987-16.985C41.986,15.531,34.366,7.912,24.999,7.912z"/>
</g>
</svg>
