<?xml version="1.0" encoding="utf-8"?>
<!-- Generator: Adobe Illustrator 16.0.0, SVG Export Plug-In . SVG Version: 6.00 Build 0)  -->
<!DOCTYPE svg PUBLIC "-//W3C//DTD SVG 1.1 Tiny//EN" "http://www.w3.org/Graphics/SVG/1.1/DTD/svg11-tiny.dtd">
<svg version="1.1" baseProfile="tiny" xmlns="http://www.w3.org/2000/svg" xmlns:xlink="http://www.w3.org/1999/xlink" x="0px"
	 y="0px" width="50px" height="50px" viewBox="0 0 50 50" xml:space="preserve">
<g id="Layer_1" display="none">
	<path display="inline" fill="#3682C4" d="M22.855,17.852c0-0.531-0.005-1.022,0.002-1.516c0.01-0.699,0.48-1.22,1.176-1.323
		c0.549-0.08,1.157,0.309,1.348,0.883c0.056,0.176,0.073,0.373,0.078,0.56c0.01,0.455,0.002,0.909,0.002,1.381
		c3.815,0,7.606,0,11.438,0c0-0.5-0.003-0.999,0.001-1.498c0.002-0.483,0.203-0.862,0.61-1.125c0.772-0.498,1.824-0.039,1.946,0.873
		c0.062,0.45,0.03,0.911,0.04,1.365c0.002,0.122,0.001,0.243,0.001,0.399c0.465,0,0.9-0.006,1.335,0.001
		c1.514,0.024,2.675,0.89,3.04,2.315c0.1,0.388,0.1,0.809,0.1,1.215c0.009,5.086-0.012,10.176,0.011,15.265
		c0.007,1.483-0.958,2.757-2.338,3.077c-0.411,0.099-0.849,0.099-1.273,0.099c-6.07,0.006-12.134,0.009-18.202-0.004
		c-0.557,0-1.139-0.006-1.661-0.164c-1.336-0.4-2.133-1.571-2.133-2.97c0-4.916-0.002-9.832,0.002-14.75
		c0-0.549-0.02-1.112,0.082-1.647c0.278-1.453,1.54-2.444,3.022-2.438C21.929,17.854,22.372,17.852,22.855,17.852z M19.999,24.648
		c0,0.109,0,0.184,0,0.259c-0.001,1.998-0.001,3.995-0.001,5.994c0,1.91,0.009,3.824-0.005,5.736
		c-0.008,0.99,0.77,1.604,1.547,1.556c0.72-0.045,1.446-0.007,2.168-0.007c3.14,0,6.28,0,9.418,0c2.606,0,5.213,0.003,7.819-0.006
		c0.755-0.002,1.322-0.514,1.39-1.271c0.04-0.444,0.023-0.891,0.023-1.34c0.003-3.319,0.004-6.641,0.005-9.958
		c0-0.318,0-0.639,0-0.963C34.889,24.648,27.462,24.648,19.999,24.648z M33.534,28.847c0.753-0.244,1.286,0.128,1.249,0.821
		c-0.018,0.348-0.239,0.619-0.657,0.727c-0.325,0.084-0.666,0.117-1.005,0.172c0,0.375,0,0.751,0,1.156
		c0.142,0,0.267-0.019,0.384,0.005c0.353,0.064,0.716,0.107,1.048,0.229c0.385,0.143,0.499,0.418,0.467,0.881
		c-0.025,0.312-0.23,0.558-0.582,0.657c-0.423,0.116-0.853,0.136-1.255-0.061c-0.312-0.152-0.599-0.353-0.908-0.539
		c-0.239,0.329-0.494,0.668-0.75,1.02c0.659,0.722,1.47,1.012,2.408,1.018c0.769,0.005,1.492-0.138,2.102-0.646
		c0.96-0.799,0.969-2.482-0.413-3.073c-0.105-0.045-0.21-0.096-0.341-0.156c0.08-0.044,0.128-0.074,0.178-0.099
		c0.605-0.297,1.008-0.747,1.024-1.453c0.015-0.734-0.292-1.304-0.934-1.677c-0.441-0.253-0.924-0.327-1.422-0.349
		c-0.927-0.04-1.694,0.311-2.391,0.922c0.284,0.345,0.555,0.674,0.804,0.979C32.888,29.187,33.19,28.956,33.534,28.847z
		 M28.525,33.086c0.655-0.716,1.3-1.438,1.7-2.339c0.645-1.451-0.18-3.038-1.677-3.241c-1.16-0.156-2.107,0.231-2.866,1.092
		c0.289,0.3,0.576,0.602,0.859,0.898c0.238-0.187,0.451-0.381,0.686-0.531c0.361-0.23,0.759-0.25,1.142-0.055
		c0.39,0.195,0.496,0.561,0.47,0.961c-0.015,0.216-0.055,0.443-0.15,0.63c-0.156,0.312-0.332,0.629-0.568,0.883
		c-0.72,0.779-1.478,1.528-2.217,2.296c-0.07,0.071-0.165,0.157-0.172,0.242c-0.022,0.284-0.007,0.564-0.007,0.861
		c1.708,0,3.376,0,5.055,0c0-0.471,0-0.923,0-1.369c-0.855,0-1.697,0-2.559,0C28.325,33.304,28.424,33.197,28.525,33.086z"/>
	<g display="inline">
		<path fill="#61BB4D" d="M23.124,27.417c-0.955-0.411-1.91-0.819-2.871-1.222c-1.166-0.49-2.338-0.97-3.506-1.459
			c-0.13-0.056-0.265-0.131-0.364-0.23c-2.781-2.775-5.557-5.551-8.334-8.331c-0.041-0.038-0.072-0.083-0.081-0.094
			c1.319-1.318,2.623-2.626,3.958-3.961c0.041,0.041,0.13,0.121,0.214,0.205c2.706,2.707,5.413,5.412,8.114,8.124
			c0.153,0.154,0.281,0.35,0.366,0.55c0.841,2.004,1.667,4.015,2.5,6.021c0.039,0.092,0.092,0.177,0.139,0.263
			C23.213,27.324,23.169,27.369,23.124,27.417z"/>
		<path fill="#FFFFFF" d="M20.247,21.939c-0.839,0.156-1.287,0.504-1.081,1.388c-0.818-0.209-1.234,0.189-1.375,1.067
			c0.082,0.038,0.167,0.083,0.256,0.12c0.91,0.379,1.819,0.758,2.731,1.13c0.122,0.051,0.292,0.134,0.373,0.087
			c0.172-0.101,0.301-0.272,0.438-0.426c0.023-0.028,0.003-0.11-0.019-0.16C21.132,24.082,20.693,23.019,20.247,21.939z"/>
		<path fill="#61BB4D" d="M8.372,10.172c-0.592,0.171-1.144,0.408-1.584,0.868c-0.407,0.424-0.604,0.945-0.772,1.49
			c0,0.291,0,0.583,0,0.875c0.168,0.569,0.353,1.129,0.805,1.521c1.32-1.319,2.631-2.63,3.957-3.954
			c-0.075-0.065-0.154-0.17-0.259-0.222c-0.419-0.202-0.847-0.387-1.27-0.577C8.957,10.172,8.664,10.172,8.372,10.172z"/>
	</g>
	<rect x="6.015" y="36.469" display="inline" fill="#3682C4" width="8.915" height="1.274"/>
	<rect x="6.015" y="32.647" display="inline" fill="#3682C4" width="8.915" height="1.273"/>
</g>
<g id="Layer_1_copy" display="none">
	<path display="inline" fill="#3682C4" d="M22.855,17.852c0-0.531-0.005-1.022,0.002-1.516c0.01-0.699,0.48-1.22,1.176-1.323
		c0.549-0.08,1.157,0.309,1.348,0.883c0.056,0.176,0.073,0.373,0.078,0.56c0.01,0.455,0.002,0.909,0.002,1.381
		c3.815,0,7.606,0,11.438,0c0-0.5-0.003-0.999,0.001-1.498c0.002-0.483,0.203-0.862,0.61-1.125c0.772-0.498,1.824-0.039,1.946,0.873
		c0.062,0.45,0.03,0.911,0.04,1.365c0.002,0.122,0.001,0.243,0.001,0.399c0.465,0,0.9-0.006,1.335,0.001
		c1.514,0.024,2.675,0.89,3.04,2.315c0.1,0.388,0.1,0.809,0.1,1.215c0.009,5.086-0.012,10.176,0.011,15.265
		c0.007,1.483-0.958,2.757-2.338,3.077c-0.411,0.099-0.849,0.099-1.273,0.099c-6.07,0.006-12.134,0.009-18.202-0.004
		c-0.557,0-1.139-0.006-1.661-0.164c-1.336-0.4-2.133-1.571-2.133-2.97c0-4.916-0.002-9.832,0.002-14.75
		c0-0.549-0.02-1.112,0.082-1.647c0.278-1.453,1.54-2.444,3.022-2.438C21.929,17.854,22.372,17.852,22.855,17.852z M19.999,24.648
		c0,0.109,0,0.184,0,0.259c-0.001,1.998-0.001,3.995-0.001,5.994c0,1.91,0.009,3.824-0.005,5.736
		c-0.008,0.99,0.77,1.604,1.547,1.556c0.72-0.045,1.446-0.007,2.168-0.007c3.14,0,6.28,0,9.418,0c2.606,0,5.213,0.003,7.819-0.006
		c0.755-0.002,1.322-0.514,1.39-1.271c0.04-0.444,0.023-0.891,0.023-1.34c0.003-3.319,0.004-6.641,0.005-9.958
		c0-0.318,0-0.639,0-0.963C34.889,24.648,27.462,24.648,19.999,24.648z M33.534,28.847c0.753-0.244,1.286,0.128,1.249,0.821
		c-0.018,0.348-0.239,0.619-0.657,0.727c-0.325,0.084-0.666,0.117-1.005,0.172c0,0.375,0,0.751,0,1.156
		c0.142,0,0.267-0.019,0.384,0.005c0.353,0.064,0.716,0.107,1.048,0.229c0.385,0.143,0.499,0.418,0.467,0.881
		c-0.025,0.312-0.23,0.558-0.582,0.657c-0.423,0.116-0.853,0.136-1.255-0.061c-0.312-0.152-0.599-0.353-0.908-0.539
		c-0.239,0.329-0.494,0.668-0.75,1.02c0.659,0.722,1.47,1.012,2.408,1.018c0.769,0.005,1.492-0.138,2.102-0.646
		c0.96-0.799,0.969-2.482-0.413-3.073c-0.105-0.045-0.21-0.096-0.341-0.156c0.08-0.044,0.128-0.074,0.178-0.099
		c0.605-0.297,1.008-0.747,1.024-1.453c0.015-0.734-0.292-1.304-0.934-1.677c-0.441-0.253-0.924-0.327-1.422-0.349
		c-0.927-0.04-1.694,0.311-2.391,0.922c0.284,0.345,0.555,0.674,0.804,0.979C32.888,29.187,33.19,28.956,33.534,28.847z
		 M28.525,33.086c0.655-0.716,1.3-1.438,1.7-2.339c0.645-1.451-0.18-3.038-1.677-3.241c-1.16-0.156-2.107,0.231-2.866,1.092
		c0.289,0.3,0.576,0.602,0.859,0.898c0.238-0.187,0.451-0.381,0.686-0.531c0.361-0.23,0.759-0.25,1.142-0.055
		c0.39,0.195,0.496,0.561,0.47,0.961c-0.015,0.216-0.055,0.443-0.15,0.63c-0.156,0.312-0.332,0.629-0.568,0.883
		c-0.72,0.779-1.478,1.528-2.217,2.296c-0.07,0.071-0.165,0.157-0.172,0.242c-0.022,0.284-0.007,0.564-0.007,0.861
		c1.708,0,3.376,0,5.055,0c0-0.471,0-0.923,0-1.369c-0.855,0-1.697,0-2.559,0C28.325,33.304,28.424,33.197,28.525,33.086z"/>
	<g display="inline">
		<path fill="#61BB4D" d="M23.124,27.417c-0.955-0.411-1.91-0.819-2.871-1.222c-1.166-0.49-2.338-0.97-3.506-1.459
			c-0.13-0.056-0.265-0.131-0.364-0.23c-2.781-2.775-5.557-5.551-8.334-8.331c-0.041-0.038-0.072-0.083-0.081-0.094
			c1.319-1.318,2.623-2.626,3.958-3.961c0.041,0.041,0.13,0.121,0.214,0.205c2.706,2.707,5.413,5.412,8.114,8.124
			c0.153,0.154,0.281,0.35,0.366,0.55c0.841,2.004,1.667,4.015,2.5,6.021c0.039,0.092,0.092,0.177,0.139,0.263
			C23.213,27.324,23.169,27.369,23.124,27.417z"/>
		<path fill="#FFFFFF" d="M20.247,21.939c-0.839,0.156-1.287,0.504-1.081,1.388c-0.818-0.209-1.234,0.189-1.375,1.067
			c0.082,0.038,0.167,0.083,0.256,0.12c0.91,0.379,1.819,0.758,2.731,1.13c0.122,0.051,0.292,0.134,0.373,0.087
			c0.172-0.101,0.301-0.272,0.438-0.426c0.023-0.028,0.003-0.11-0.019-0.16C21.132,24.082,20.693,23.019,20.247,21.939z"/>
		<path fill="#61BB4D" d="M8.372,10.172c-0.592,0.171-1.144,0.408-1.584,0.868c-0.407,0.424-0.604,0.945-0.772,1.49
			c0,0.291,0,0.583,0,0.875c0.168,0.569,0.353,1.129,0.805,1.521c1.32-1.319,2.631-2.63,3.957-3.954
			c-0.075-0.065-0.154-0.17-0.259-0.222c-0.419-0.202-0.847-0.387-1.27-0.577C8.957,10.172,8.664,10.172,8.372,10.172z"/>
	</g>
	<rect x="6.015" y="36.469" display="inline" fill="#3682C4" width="8.915" height="1.274"/>
	<rect x="6.015" y="32.647" display="inline" fill="#3682C4" width="8.915" height="1.273"/>
</g>
<g id="Layer_2">
	<path fill="#3682C4" d="M40.849,40.043H21.037c-1.66,0-3.01-1.35-3.01-3.01V24.001c0-1.66,1.35-3.01,3.01-3.01h19.812
		c1.66,0,3.01,1.35,3.01,3.01v13.032C43.858,38.693,42.509,40.043,40.849,40.043z M21.037,22.439c-0.861,0-1.562,0.701-1.562,1.562
		v13.032c0,0.861,0.701,1.563,1.562,1.563h19.812c0.861,0,1.562-0.701,1.562-1.563V24.001c0-0.861-0.7-1.562-1.562-1.562H21.037z
		 M38.545,19.372c0-0.425-0.343-0.768-0.769-0.768l-7.201,0c-0.425,0-0.769,0.344-0.769,0.769l0,0c0,0.426,0.344,0.77,0.769,0.77
		h7.201C38.201,20.141,38.545,19.797,38.545,19.372L38.545,19.372z M25.208,19.372c0-0.425-0.343-0.768-0.768-0.768l-1.867,0
		c-0.426,0-0.77,0.344-0.77,0.769l0,0c0,0.426,0.344,0.77,0.77,0.77h1.867C24.864,20.141,25.208,19.797,25.208,19.372L25.208,19.372
		z M34.176,25.069c-3.053,0-5.528,2.476-5.528,5.53c0,3.053,2.476,5.527,5.528,5.527c3.055,0,5.53-2.475,5.53-5.527
		C39.706,27.545,37.23,25.069,34.176,25.069z M34.176,34.58c-2.197,0-3.979-1.783-3.979-3.98c0-2.199,1.782-3.982,3.979-3.982
		c2.199,0,3.981,1.783,3.981,3.982C38.157,32.797,36.375,34.58,34.176,34.58z M36.992,30.6c0,1.555-1.261,2.814-2.816,2.814
		c-1.554,0-2.815-1.26-2.815-2.814c0-1.557,1.262-2.816,2.815-2.816C35.731,27.783,36.992,29.043,36.992,30.6z"/>
	<rect x="6.015" y="35.469" fill="#3682C4" width="10.353" height="1.274"/>
	<rect x="6.015" y="31.647" fill="#3682C4" width="10.353" height="1.273"/>
	<path fill="#61BB4D" d="M21.931,10.559c-0.536-0.536-1.402-0.536-1.939,0l-8.589,8.589l-3.047-3.047
		c-0.536-0.536-1.403-0.537-1.939-0.001c-0.535,0.536-0.535,1.403,0,1.939l4.017,4.017c0.536,0.537,1.404,0.537,1.939,0l9.558-9.557
		C22.466,11.962,22.466,11.095,21.931,10.559z"/>
</g>
</svg>
