<?xml version="1.0" encoding="utf-8"?>
<!-- Generator: Adobe Illustrator 16.0.0, SVG Export Plug-In . SVG Version: 6.00 Build 0)  -->
<!DOCTYPE svg PUBLIC "-//W3C//DTD SVG 1.1 Tiny//EN" "http://www.w3.org/Graphics/SVG/1.1/DTD/svg11-tiny.dtd">
<svg version="1.1" baseProfile="tiny" xmlns="http://www.w3.org/2000/svg" xmlns:xlink="http://www.w3.org/1999/xlink" x="0px"
	 y="0px" width="50px" height="50px" viewBox="0 0 50 50" xml:space="preserve">
<g id="Layer_1" display="none">
	<path display="inline" fill="#3682C4" d="M22.855,17.852c0-0.531-0.005-1.022,0.002-1.516c0.01-0.699,0.48-1.22,1.176-1.323
		c0.549-0.08,1.157,0.309,1.348,0.883c0.056,0.176,0.073,0.373,0.078,0.56c0.01,0.455,0.002,0.909,0.002,1.381
		c3.815,0,7.606,0,11.438,0c0-0.5-0.003-0.999,0.001-1.498c0.002-0.483,0.203-0.862,0.61-1.125c0.772-0.498,1.824-0.039,1.946,0.873
		c0.062,0.45,0.03,0.911,0.04,1.365c0.002,0.122,0.001,0.243,0.001,0.399c0.465,0,0.9-0.006,1.335,0.001
		c1.514,0.024,2.675,0.89,3.04,2.315c0.1,0.388,0.1,0.809,0.1,1.215c0.009,5.086-0.012,10.176,0.011,15.265
		c0.007,1.483-0.958,2.757-2.338,3.077c-0.411,0.099-0.849,0.099-1.273,0.099c-6.07,0.006-12.134,0.009-18.202-0.004
		c-0.557,0-1.139-0.006-1.661-0.164c-1.336-0.4-2.133-1.571-2.133-2.97c0-4.916-0.002-9.832,0.002-14.75
		c0-0.549-0.02-1.112,0.082-1.647c0.278-1.453,1.54-2.444,3.022-2.438C21.929,17.854,22.372,17.852,22.855,17.852z M19.999,24.648
		c0,0.109,0,0.184,0,0.259c-0.001,1.998-0.001,3.995-0.001,5.994c0,1.91,0.009,3.824-0.005,5.736
		c-0.008,0.99,0.77,1.604,1.547,1.556c0.72-0.045,1.446-0.007,2.168-0.007c3.14,0,6.28,0,9.418,0c2.606,0,5.213,0.003,7.819-0.006
		c0.755-0.002,1.322-0.514,1.39-1.271c0.04-0.444,0.023-0.891,0.023-1.34c0.003-3.319,0.004-6.641,0.005-9.958
		c0-0.318,0-0.639,0-0.963C34.889,24.648,27.462,24.648,19.999,24.648z M33.534,28.847c0.753-0.244,1.286,0.128,1.249,0.821
		c-0.018,0.348-0.239,0.619-0.657,0.727c-0.325,0.084-0.666,0.117-1.005,0.172c0,0.375,0,0.751,0,1.156
		c0.142,0,0.267-0.019,0.384,0.005c0.353,0.064,0.716,0.107,1.048,0.229c0.385,0.143,0.499,0.418,0.467,0.881
		c-0.025,0.312-0.23,0.558-0.582,0.657c-0.423,0.116-0.853,0.136-1.255-0.061c-0.312-0.152-0.599-0.353-0.908-0.539
		c-0.239,0.329-0.494,0.668-0.75,1.02c0.659,0.722,1.47,1.012,2.408,1.018c0.769,0.005,1.492-0.138,2.102-0.646
		c0.96-0.799,0.969-2.482-0.413-3.073c-0.105-0.045-0.21-0.096-0.341-0.156c0.08-0.044,0.128-0.074,0.178-0.099
		c0.605-0.297,1.008-0.747,1.024-1.453c0.015-0.734-0.292-1.304-0.934-1.677c-0.441-0.253-0.924-0.327-1.422-0.349
		c-0.927-0.04-1.694,0.311-2.391,0.922c0.284,0.345,0.555,0.674,0.804,0.979C32.888,29.187,33.19,28.956,33.534,28.847z
		 M28.525,33.086c0.655-0.716,1.3-1.438,1.7-2.339c0.645-1.451-0.18-3.038-1.677-3.241c-1.16-0.156-2.107,0.231-2.866,1.092
		c0.289,0.3,0.576,0.602,0.859,0.898c0.238-0.187,0.451-0.381,0.686-0.531c0.361-0.23,0.759-0.25,1.142-0.055
		c0.39,0.195,0.496,0.561,0.47,0.961c-0.015,0.216-0.055,0.443-0.15,0.63c-0.156,0.312-0.332,0.629-0.568,0.883
		c-0.72,0.779-1.478,1.528-2.217,2.296c-0.07,0.071-0.165,0.157-0.172,0.242c-0.022,0.284-0.007,0.564-0.007,0.861
		c1.708,0,3.376,0,5.055,0c0-0.471,0-0.923,0-1.369c-0.855,0-1.697,0-2.559,0C28.325,33.304,28.424,33.197,28.525,33.086z"/>
	<g display="inline">
		<path fill="#61BB4D" d="M23.124,27.417c-0.955-0.411-1.91-0.819-2.871-1.222c-1.166-0.49-2.338-0.97-3.506-1.459
			c-0.13-0.056-0.265-0.131-0.364-0.23c-2.781-2.775-5.557-5.551-8.334-8.331c-0.041-0.038-0.072-0.083-0.081-0.094
			c1.319-1.318,2.623-2.626,3.958-3.961c0.041,0.041,0.13,0.121,0.214,0.205c2.706,2.707,5.413,5.412,8.114,8.124
			c0.153,0.154,0.281,0.35,0.366,0.55c0.841,2.004,1.667,4.015,2.5,6.021c0.039,0.092,0.092,0.177,0.139,0.263
			C23.213,27.324,23.169,27.369,23.124,27.417z"/>
		<path fill="#FFFFFF" d="M20.247,21.939c-0.839,0.156-1.287,0.504-1.081,1.388c-0.818-0.209-1.234,0.189-1.375,1.067
			c0.082,0.038,0.167,0.083,0.256,0.12c0.91,0.379,1.819,0.758,2.731,1.13c0.122,0.051,0.292,0.134,0.373,0.087
			c0.172-0.101,0.301-0.272,0.438-0.426c0.023-0.028,0.003-0.11-0.019-0.16C21.132,24.082,20.693,23.019,20.247,21.939z"/>
		<path fill="#61BB4D" d="M8.372,10.172c-0.592,0.171-1.144,0.408-1.584,0.868c-0.407,0.424-0.604,0.945-0.772,1.49
			c0,0.291,0,0.583,0,0.875c0.168,0.569,0.353,1.129,0.805,1.521c1.32-1.319,2.631-2.63,3.957-3.954
			c-0.075-0.065-0.154-0.17-0.259-0.222c-0.419-0.202-0.847-0.387-1.27-0.577C8.957,10.172,8.664,10.172,8.372,10.172z"/>
	</g>
	<rect x="6.015" y="36.469" display="inline" fill="#3682C4" width="8.915" height="1.274"/>
	<rect x="6.015" y="32.647" display="inline" fill="#3682C4" width="8.915" height="1.273"/>
</g>
<g id="Layer_1_copy" display="none">
	<path display="inline" fill="#3682C4" d="M22.855,17.852c0-0.531-0.005-1.022,0.002-1.516c0.01-0.699,0.48-1.22,1.176-1.323
		c0.549-0.08,1.157,0.309,1.348,0.883c0.056,0.176,0.073,0.373,0.078,0.56c0.01,0.455,0.002,0.909,0.002,1.381
		c3.815,0,7.606,0,11.438,0c0-0.5-0.003-0.999,0.001-1.498c0.002-0.483,0.203-0.862,0.61-1.125c0.772-0.498,1.824-0.039,1.946,0.873
		c0.062,0.45,0.03,0.911,0.04,1.365c0.002,0.122,0.001,0.243,0.001,0.399c0.465,0,0.9-0.006,1.335,0.001
		c1.514,0.024,2.675,0.89,3.04,2.315c0.1,0.388,0.1,0.809,0.1,1.215c0.009,5.086-0.012,10.176,0.011,15.265
		c0.007,1.483-0.958,2.757-2.338,3.077c-0.411,0.099-0.849,0.099-1.273,0.099c-6.07,0.006-12.134,0.009-18.202-0.004
		c-0.557,0-1.139-0.006-1.661-0.164c-1.336-0.4-2.133-1.571-2.133-2.97c0-4.916-0.002-9.832,0.002-14.75
		c0-0.549-0.02-1.112,0.082-1.647c0.278-1.453,1.54-2.444,3.022-2.438C21.929,17.854,22.372,17.852,22.855,17.852z M19.999,24.648
		c0,0.109,0,0.184,0,0.259c-0.001,1.998-0.001,3.995-0.001,5.994c0,1.91,0.009,3.824-0.005,5.736
		c-0.008,0.99,0.77,1.604,1.547,1.556c0.72-0.045,1.446-0.007,2.168-0.007c3.14,0,6.28,0,9.418,0c2.606,0,5.213,0.003,7.819-0.006
		c0.755-0.002,1.322-0.514,1.39-1.271c0.04-0.444,0.023-0.891,0.023-1.34c0.003-3.319,0.004-6.641,0.005-9.958
		c0-0.318,0-0.639,0-0.963C34.889,24.648,27.462,24.648,19.999,24.648z M33.534,28.847c0.753-0.244,1.286,0.128,1.249,0.821
		c-0.018,0.348-0.239,0.619-0.657,0.727c-0.325,0.084-0.666,0.117-1.005,0.172c0,0.375,0,0.751,0,1.156
		c0.142,0,0.267-0.019,0.384,0.005c0.353,0.064,0.716,0.107,1.048,0.229c0.385,0.143,0.499,0.418,0.467,0.881
		c-0.025,0.312-0.23,0.558-0.582,0.657c-0.423,0.116-0.853,0.136-1.255-0.061c-0.312-0.152-0.599-0.353-0.908-0.539
		c-0.239,0.329-0.494,0.668-0.75,1.02c0.659,0.722,1.47,1.012,2.408,1.018c0.769,0.005,1.492-0.138,2.102-0.646
		c0.96-0.799,0.969-2.482-0.413-3.073c-0.105-0.045-0.21-0.096-0.341-0.156c0.08-0.044,0.128-0.074,0.178-0.099
		c0.605-0.297,1.008-0.747,1.024-1.453c0.015-0.734-0.292-1.304-0.934-1.677c-0.441-0.253-0.924-0.327-1.422-0.349
		c-0.927-0.04-1.694,0.311-2.391,0.922c0.284,0.345,0.555,0.674,0.804,0.979C32.888,29.187,33.19,28.956,33.534,28.847z
		 M28.525,33.086c0.655-0.716,1.3-1.438,1.7-2.339c0.645-1.451-0.18-3.038-1.677-3.241c-1.16-0.156-2.107,0.231-2.866,1.092
		c0.289,0.3,0.576,0.602,0.859,0.898c0.238-0.187,0.451-0.381,0.686-0.531c0.361-0.23,0.759-0.25,1.142-0.055
		c0.39,0.195,0.496,0.561,0.47,0.961c-0.015,0.216-0.055,0.443-0.15,0.63c-0.156,0.312-0.332,0.629-0.568,0.883
		c-0.72,0.779-1.478,1.528-2.217,2.296c-0.07,0.071-0.165,0.157-0.172,0.242c-0.022,0.284-0.007,0.564-0.007,0.861
		c1.708,0,3.376,0,5.055,0c0-0.471,0-0.923,0-1.369c-0.855,0-1.697,0-2.559,0C28.325,33.304,28.424,33.197,28.525,33.086z"/>
	<g display="inline">
		<path fill="#61BB4D" d="M23.124,27.417c-0.955-0.411-1.91-0.819-2.871-1.222c-1.166-0.49-2.338-0.97-3.506-1.459
			c-0.13-0.056-0.265-0.131-0.364-0.23c-2.781-2.775-5.557-5.551-8.334-8.331c-0.041-0.038-0.072-0.083-0.081-0.094
			c1.319-1.318,2.623-2.626,3.958-3.961c0.041,0.041,0.13,0.121,0.214,0.205c2.706,2.707,5.413,5.412,8.114,8.124
			c0.153,0.154,0.281,0.35,0.366,0.55c0.841,2.004,1.667,4.015,2.5,6.021c0.039,0.092,0.092,0.177,0.139,0.263
			C23.213,27.324,23.169,27.369,23.124,27.417z"/>
		<path fill="#FFFFFF" d="M20.247,21.939c-0.839,0.156-1.287,0.504-1.081,1.388c-0.818-0.209-1.234,0.189-1.375,1.067
			c0.082,0.038,0.167,0.083,0.256,0.12c0.91,0.379,1.819,0.758,2.731,1.13c0.122,0.051,0.292,0.134,0.373,0.087
			c0.172-0.101,0.301-0.272,0.438-0.426c0.023-0.028,0.003-0.11-0.019-0.16C21.132,24.082,20.693,23.019,20.247,21.939z"/>
		<path fill="#61BB4D" d="M8.372,10.172c-0.592,0.171-1.144,0.408-1.584,0.868c-0.407,0.424-0.604,0.945-0.772,1.49
			c0,0.291,0,0.583,0,0.875c0.168,0.569,0.353,1.129,0.805,1.521c1.32-1.319,2.631-2.63,3.957-3.954
			c-0.075-0.065-0.154-0.17-0.259-0.222c-0.419-0.202-0.847-0.387-1.27-0.577C8.957,10.172,8.664,10.172,8.372,10.172z"/>
	</g>
	<rect x="6.015" y="36.469" display="inline" fill="#3682C4" width="8.915" height="1.274"/>
	<rect x="6.015" y="32.647" display="inline" fill="#3682C4" width="8.915" height="1.273"/>
</g>
<g id="Layer_2" display="none">
	<path display="inline" fill="#3682C4" d="M40.849,40.043H21.037c-1.66,0-3.01-1.35-3.01-3.01V24.001c0-1.66,1.35-3.01,3.01-3.01
		h19.812c1.66,0,3.01,1.35,3.01,3.01v13.032C43.858,38.693,42.509,40.043,40.849,40.043z M21.037,22.439
		c-0.861,0-1.562,0.701-1.562,1.562v13.032c0,0.861,0.701,1.563,1.562,1.563h19.812c0.861,0,1.562-0.701,1.562-1.563V24.001
		c0-0.861-0.7-1.562-1.562-1.562H21.037z M38.545,19.372c0-0.425-0.343-0.768-0.769-0.768l-7.201,0
		c-0.425,0-0.769,0.344-0.769,0.769l0,0c0,0.426,0.344,0.77,0.769,0.77h7.201C38.201,20.141,38.545,19.797,38.545,19.372
		L38.545,19.372z M25.208,19.372c0-0.425-0.343-0.768-0.768-0.768l-1.867,0c-0.426,0-0.77,0.344-0.77,0.769l0,0
		c0,0.426,0.344,0.77,0.77,0.77h1.867C24.864,20.141,25.208,19.797,25.208,19.372L25.208,19.372z M34.176,25.069
		c-3.053,0-5.528,2.476-5.528,5.53c0,3.053,2.476,5.527,5.528,5.527c3.055,0,5.53-2.475,5.53-5.527
		C39.706,27.545,37.23,25.069,34.176,25.069z M34.176,34.58c-2.197,0-3.979-1.783-3.979-3.98c0-2.199,1.782-3.982,3.979-3.982
		c2.199,0,3.981,1.783,3.981,3.982C38.157,32.797,36.375,34.58,34.176,34.58z M36.992,30.6c0,1.555-1.261,2.814-2.816,2.814
		c-1.554,0-2.815-1.26-2.815-2.814c0-1.557,1.262-2.816,2.815-2.816C35.731,27.783,36.992,29.043,36.992,30.6z"/>
	<rect x="6.015" y="35.469" display="inline" fill="#3682C4" width="10.353" height="1.274"/>
	<rect x="6.015" y="31.647" display="inline" fill="#3682C4" width="10.353" height="1.273"/>
	<path display="inline" fill="#61BB4D" d="M21.931,10.559c-0.536-0.536-1.402-0.536-1.939,0l-8.589,8.589l-3.047-3.047
		c-0.536-0.536-1.403-0.537-1.939-0.001c-0.535,0.536-0.535,1.403,0,1.939l4.017,4.017c0.536,0.537,1.404,0.537,1.939,0l9.558-9.557
		C22.466,11.962,22.466,11.095,21.931,10.559z"/>
</g>
<g id="Layer_4">
	<g>
		<path fill="#3682C4" d="M25.038,26.677c0.101-0.07,0.196-0.151,0.292-0.229c0.188,0.175,0.441,0.287,0.71,0.287
			c0.287,0,0.548-0.114,0.738-0.299c0.103,0.086,0.198,0.171,0.307,0.236c0.068,0.043,0.195,0.065,0.255,0.029
			c0.069-0.043,0.11-0.154,0.129-0.244c0.021-0.086-0.029-0.156-0.136-0.121s-0.145-0.028-0.163-0.109
			c-0.017-0.07-0.021-0.142-0.031-0.215c-0.04-0.304-0.048-0.617-0.125-0.912H27c-0.105-0.436-0.495-0.761-0.965-0.761
			c-0.522,0-0.945,0.401-0.987,0.911l-0.009,0.001c-0.042,0.238-0.05,0.685-0.078,0.926c-0.01,0.082-0.025,0.191-0.157,0.162
			c-0.157-0.037-0.173,0.055-0.157,0.166C24.678,26.72,24.858,26.797,25.038,26.677z"/>
		<path fill="#3682C4" d="M31.13,31.55c0.468,0,0.866-0.397,0.866-0.872c0.001-0.508-0.354-0.862-0.858-0.861
			c-0.488,0-0.882,0.379-0.882,0.851C30.253,31.123,30.671,31.544,31.13,31.55z"/>
		<path fill="#3682C4" d="M35.78,26.292c0.617,0.005,1.066-0.442,1.067-1.057c0-0.638-0.458-1.11-1.069-1.104
			c-0.589,0.005-1.049,0.48-1.052,1.09C34.72,25.832,35.17,26.287,35.78,26.292z"/>
		<path fill="#3682C4" d="M38.42,27.905c0-0.687-0.424-1.274-1.11-1.32c-1.025-0.067-2.059-0.057-3.086,0.002
			c-0.582,0.033-1.058,0.639-1.065,1.224c-0.018,1.06-0.008,2.117-0.002,3.176c0,0.299,0.165,0.434,0.453,0.431
			c0.302,0,0.424-0.154,0.419-0.455c-0.008-0.795-0.011-1.588,0.009-2.382c0.005-0.13,0.132-0.257,0.2-0.382
			c0.046,0.116,0.106,0.231,0.139,0.354c0.02,0.078,0.005,0.167,0.005,0.251c0,2.395,0.002,4.789-0.005,7.182
			c0,0.342,0.111,0.589,0.454,0.68c0.441,0.116,0.771-0.156,0.771-0.631c0.005-1.373,0-2.744,0.005-4.115
			c0-0.103,0.001-0.222,0.046-0.309c0.021-0.045,0.193-0.07,0.217-0.042c0.056,0.073,0.095,0.182,0.095,0.276
			c0.006,1.395,0.001,2.79,0.006,4.186c0,0.434,0.225,0.651,0.635,0.646c0.385-0.004,0.587-0.227,0.587-0.647
			c0.003-1.24,0.003-2.479,0.003-3.718c0-1.228,0-2.455,0-3.681c0-0.084-0.021-0.173,0.005-0.249
			c0.022-0.069,0.107-0.181,0.14-0.173c0.075,0.02,0.16,0.083,0.195,0.154c0.034,0.067,0.015,0.164,0.015,0.249
			c0,0.744-0.003,1.492-0.003,2.237c0.004,0.456,0.098,0.572,0.451,0.571c0.339-0.006,0.423-0.115,0.423-0.558
			C38.42,29.877,38.422,28.89,38.42,27.905z"/>
		<path fill="#3682C4" d="M28.893,30.192c-0.215-0.719-0.417-1.445-0.651-2.157c-0.271-0.82-0.664-1.09-1.512-1.092
			c-0.433,0-0.867,0.001-1.298,0c-0.883-0.001-1.308,0.287-1.576,1.121c-0.258,0.804-0.492,1.618-0.728,2.429
			c-0.081,0.275-0.104,0.563,0.228,0.693c0.3,0.12,0.517-0.037,0.638-0.442c0.196-0.648,0.376-1.304,0.572-1.953
			c0.044-0.146,0.122-0.286,0.183-0.429c0.044,0.009,0.086,0.017,0.128,0.025c0,0.127,0.027,0.257-0.004,0.374
			c-0.156,0.585-0.333,1.167-0.499,1.75c-0.228,0.795-0.453,1.593-0.691,2.431c0.414,0,0.782,0,1.171,0c0,1.03,0,2.028,0.001,3.024
			c0,0.453,0.195,0.713,0.526,0.711c0.35-0.002,0.492-0.192,0.492-0.68c0-0.927,0.007-1.852-0.002-2.779
			c-0.002-0.239,0.068-0.342,0.346-0.264c0.004,0.078,0.011,0.136,0.014,0.196c0,0.996-0.004,1.994,0.001,2.992
			c0.002,0.31,0.231,0.537,0.513,0.534c0.3-0.004,0.487-0.206,0.491-0.542c0.003-0.322,0-0.647,0-0.972c0-0.73,0-1.461,0-2.233
			c0.413,0,0.788,0,1.176,0c-0.019-0.116-0.026-0.188-0.046-0.257c-0.367-1.271-0.738-2.541-1.099-3.813
			c-0.041-0.146-0.022-0.309-0.031-0.464c0.041-0.009,0.081-0.015,0.122-0.024c0.056,0.098,0.134,0.187,0.164,0.292
			c0.132,0.434,0.247,0.871,0.373,1.309c0.091,0.306,0.171,0.62,0.285,0.921c0.095,0.256,0.302,0.381,0.576,0.296
			c0.284-0.093,0.318-0.334,0.27-0.588C28.995,30.462,28.933,30.328,28.893,30.192z"/>
		<path fill="#3682C4" d="M32.825,30.693c-0.269-0.139-0.417,0.042-0.494,0.252c-0.205,0.572-0.56,0.824-1.083,0.856
			c-0.043,0.001-0.083,0.006-0.122,0.006s-0.082-0.005-0.122-0.006c-0.525-0.033-0.878-0.284-1.084-0.856
			c-0.076-0.21-0.227-0.391-0.493-0.252c-0.285,0.145-0.2,0.373-0.097,0.584c0.2,0.407,0.439,0.796,0.62,1.212
			c0.104,0.242,0.179,0.519,0.186,0.783c0.026,0.936,0.012,1.872,0.021,2.809c0.002,0.392,0.175,0.604,0.464,0.601
			c0.31-0.004,0.443-0.182,0.446-0.602c0-0.396,0-0.792,0-1.188c0.019,0,0.039,0,0.059-0.003c0.02,0.003,0.04,0.003,0.06,0.003
			c0,0.396-0.001,0.792,0,1.188c0,0.42,0.136,0.598,0.443,0.602c0.291,0.003,0.464-0.209,0.466-0.601
			c0.01-0.937-0.006-1.873,0.02-2.809c0.006-0.265,0.08-0.541,0.186-0.783c0.182-0.416,0.42-0.805,0.621-1.212
			C33.024,31.066,33.108,30.838,32.825,30.693z"/>
	</g>
	<path fill="#3682C4" d="M40.983,20.823H21.042c-1.67,0-3.029,1.359-3.029,3.03v13.118c0,1.67,1.358,3.029,3.029,3.029h19.942
		c1.671,0,3.029-1.358,3.029-3.029V23.853C44.013,22.182,42.654,20.823,40.983,20.823z M42.554,36.971
		c0,0.866-0.704,1.569-1.57,1.569H21.042c-0.867,0-1.572-0.703-1.572-1.569V23.853c0-0.867,0.707-1.573,1.572-1.573h19.942
		c0.866,0,1.569,0.706,1.569,1.573V36.971L42.554,36.971z"/>
	<rect x="6.015" y="35.469" fill="#3682C4" width="10.353" height="1.274"/>
	<rect x="6.015" y="31.647" fill="#3682C4" width="10.353" height="1.273"/>
	<path fill="#61BB4D" d="M21.931,10.559c-0.536-0.536-1.402-0.536-1.939,0l-8.589,8.589l-3.047-3.047
		c-0.536-0.536-1.403-0.537-1.939-0.001c-0.535,0.536-0.535,1.403,0,1.939l4.017,4.017c0.536,0.537,1.404,0.537,1.939,0l9.558-9.557
		C22.466,11.962,22.466,11.095,21.931,10.559z"/>
</g>
</svg>
