<?xml version="1.0" encoding="utf-8"?>
<!-- Generator: Adobe Illustrator 16.0.0, SVG Export Plug-In . SVG Version: 6.00 Build 0)  -->
<!DOCTYPE svg PUBLIC "-//W3C//DTD SVG 1.1 Tiny//EN" "http://www.w3.org/Graphics/SVG/1.1/DTD/svg11-tiny.dtd">
<svg version="1.1" baseProfile="tiny" id="Layer_1" xmlns="http://www.w3.org/2000/svg" xmlns:xlink="http://www.w3.org/1999/xlink"
	 x="0px" y="0px" width="50px" height="50px" viewBox="0 0 50 50" xml:space="preserve">
<path fill="#667680" d="M36.177,27.544l-0.003,0.002c0,0.002-0.001,0.004-0.001,0.004S36.173,27.546,36.177,27.544z M25.016,6.013
	c-7.565,0-13.698,6.102-13.698,13.632c0,3.064,1.122,5.857,2.736,8.174l9.928,15.525c0.148,0.257,0.392,0.458,0.688,0.544
	c0.117,0.033,0.231,0.055,0.347,0.055c0.071,0,0.14-0.01,0.207-0.021c0.048-0.008,0.094-0.018,0.142-0.033
	c0.288-0.086,0.525-0.275,0.673-0.52l10.137-15.823c0.002-0.002,0.003-0.004,0.003-0.008c0,0,0,0,0.004,0
	c1.592-2.227,2.533-4.949,2.533-7.893C38.714,12.115,32.579,6.013,25.016,6.013z M34.872,25.172H34.87l-0.7,1.095l-9.153,14.282
	l-8.953-14.002l-0.029-0.041l-0.024-0.037c-1.054-1.516-2.313-3.928-2.313-6.829c0-6.208,5.077-11.259,11.317-11.259
	c6.238,0,11.314,5.052,11.314,11.259C36.33,21.6,35.832,23.491,34.872,25.172z M25.02,13.738c-3.287,0-5.958,2.66-5.958,5.928
	c0,3.27,2.67,5.931,5.958,5.931c3.281,0,5.953-2.661,5.953-5.931C30.973,16.398,28.301,13.738,25.02,13.738z M25.02,23.208
	c-1.964,0-3.558-1.586-3.558-3.542c0-1.956,1.594-3.535,3.558-3.535c1.963,0,3.554,1.58,3.554,3.535
	C28.574,21.622,26.983,23.208,25.02,23.208z"/>
</svg>
