<?xml version="1.0" encoding="utf-8"?>
<!-- Generator: Adobe Illustrator 16.0.0, SVG Export Plug-In . SVG Version: 6.00 Build 0)  -->
<!DOCTYPE svg PUBLIC "-//W3C//DTD SVG 1.1 Tiny//EN" "http://www.w3.org/Graphics/SVG/1.1/DTD/svg11-tiny.dtd">
<svg version="1.1" baseProfile="tiny" id="Layer_1" xmlns="http://www.w3.org/2000/svg" xmlns:xlink="http://www.w3.org/1999/xlink"
	 x="0px" y="0px" width="50px" height="50px" viewBox="0 0 50 50" xml:space="preserve">
<path fill="#FFFFFF" d="M33.845,26.938l-0.003,0.002c0,0.001-0.001,0.003-0.001,0.003S33.841,26.939,33.845,26.938z M25.063,10
	c-5.951,0-10.776,4.8-10.776,10.724c0,2.411,0.882,4.607,2.152,6.43l7.81,12.213c0.118,0.202,0.309,0.361,0.541,0.429
	c0.092,0.026,0.183,0.043,0.273,0.043c0.056,0,0.11-0.007,0.163-0.017c0.038-0.007,0.074-0.014,0.111-0.026
	c0.227-0.067,0.414-0.217,0.53-0.408l7.975-12.448c0.002-0.002,0.003-0.004,0.003-0.006c0,0,0,0,0.002,0
	c1.253-1.752,1.993-3.894,1.993-6.209C35.84,14.8,31.014,10,25.063,10z M32.817,25.071h-0.002l-0.551,0.862l-7.2,11.236
	l-7.043-11.016l-0.022-0.032l-0.019-0.029c-0.829-1.192-1.819-3.09-1.819-5.372c0-4.884,3.994-8.858,8.903-8.858
	c4.907,0,8.901,3.974,8.901,8.858C33.965,22.262,33.572,23.75,32.817,25.071z M25.067,16.077c-2.586,0-4.687,2.093-4.687,4.664
	c0,2.572,2.101,4.665,4.687,4.665c2.582,0,4.683-2.093,4.683-4.665C29.75,18.169,27.648,16.077,25.067,16.077z M25.067,23.527
	c-1.545,0-2.799-1.248-2.799-2.787c0-1.538,1.253-2.781,2.799-2.781c1.544,0,2.796,1.243,2.796,2.781
	C27.863,22.279,26.611,23.527,25.067,23.527z"/>
</svg>
