<?xml version="1.0" encoding="utf-8"?>
<!-- Generator: Adobe Illustrator 16.0.0, SVG Export Plug-In . SVG Version: 6.00 Build 0)  -->
<!DOCTYPE svg PUBLIC "-//W3C//DTD SVG 1.1 Tiny//EN" "http://www.w3.org/Graphics/SVG/1.1/DTD/svg11-tiny.dtd">
<svg version="1.1" baseProfile="tiny" id="Layer_3" xmlns="http://www.w3.org/2000/svg" xmlns:xlink="http://www.w3.org/1999/xlink"
	 x="0px" y="0px" width="258px" height="45.667px" viewBox="11.667 6.167 258 45.667" xml:space="preserve">
<path fill="#FFFFFF" d="M27.188,35.12c-2.568,1.825-4.936,1.563-6.07,1.563c-7.688,0-7.771-5.545-7.771-6.007
	c0-8.864,14.325-6.133,14.325-9.83c0-1.386-1.47-1.681-2.604-1.681c-2.94,0-6.049,0.966-8.78,1.975l0.84-5.125
	c3.318-0.756,6.679-1.302,9.914-1.302c6.637,0,8.822,2.227,8.822,5.713c0,1.05-0.714,11.552-0.714,15.753h-8.065
	c0.027-0.248,0.053-0.496,0.077-0.746L27.188,35.12z M27.6,28.979c0.038-0.724,0.075-1.446,0.113-2.167
	c-1.554,1.092-6.385,1.26-6.385,3.739c0,1.303,1.176,1.68,2.311,1.68c0.756,0,3.502-0.231,3.94-2.971L27.6,28.979z"/>
<path fill="#FFFFFF" d="M101.034,35.12c-2.568,1.825-4.936,1.563-6.07,1.563c-7.688,0-7.771-5.545-7.771-6.007
	c0-8.864,14.325-6.133,14.325-9.83c0-1.386-1.47-1.681-2.604-1.681c-2.94,0-6.049,0.966-8.78,1.975l0.84-5.125
	c3.318-0.756,6.679-1.302,9.914-1.302c6.637,0,8.822,2.227,8.822,5.713c0,1.05-0.714,11.552-0.714,15.753h-8.065
	c0.027-0.248,0.053-0.496,0.077-0.746L101.034,35.12z M101.446,28.979c0.038-0.724,0.075-1.446,0.113-2.167
	c-1.554,1.092-6.385,1.26-6.385,3.739c0,1.303,1.176,1.68,2.311,1.68c0.756,0,3.502-0.231,3.94-2.971L101.446,28.979z"/>
<path fill="#FFFFFF" d="M53.528,33.618h-0.084c-1.89,2.059-4.243,3.065-7.183,3.065c-5.545,0-8.906-4.285-8.906-9.578
	c0-6.049,3.319-12.392,12.603-12.392c1.386,0,2.73,0.126,4.075,0.294c0.126-2.268,0.168-4.537,0.21-6.847h8.275
	c-0.336,4.369-0.714,8.485-0.966,12.938c-0.294,4.495-0.546,9.2-0.546,15.081h-7.604L53.528,33.618z M51.638,20.217
	c-4.243,0-6.301,3.108-6.301,6.427c0,2.269,1.218,4.327,3.739,4.327c4.537,0,4.579-6.553,4.621-10.502
	C53.024,20.301,52.352,20.217,51.638,20.217z"/>
<path fill="#FFFFFF" d="M80.717,15.218h8.359c-3.276,6.89-6.301,13.905-9.242,20.962h-8.737c-2.143-7.057-4.621-13.988-7.057-20.962
	h8.233l3.612,13.316h0.084L80.717,15.218z"/>
<path fill="#FFFFFF" d="M120.152,17.949l0.084,0.084c1.974-2.478,4.621-3.318,7.855-3.318c4.117,0,7.687,1.554,7.687,6.679
	c0,1.134-0.588,9.536-0.588,14.788h-8.275c0.252-3.656,0.63-7.31,0.63-10.965c0-2.059-0.63-3.949-3.066-3.949
	c-2.143,0-3.571,1.47-4.159,3.444c-0.714,2.227-0.882,6.974-1.05,11.468h-8.359c0.84-6.931,1.134-13.946,1.26-20.962h8.191
	L120.152,17.949z"/>
<path fill="#FFFFFF" d="M156.076,21.729c-1.724-0.588-3.529-1.008-5.335-1.008c-3.235,0-5.293,1.891-5.293,5.167
	c0,3.151,1.68,4.789,4.83,4.789c1.765,0,3.57-0.42,5.209-1.008l-1.008,6.259c-2.06,0.504-4.158,0.756-6.26,0.756
	c-6.848,0-10.754-3.695-10.754-10.627c0-2.226,0.546-11.342,11.133-11.342c2.729,0,4.957,0.252,7.1,0.798L156.076,21.729z"/>
<path fill="#FFFFFF" d="M165.515,26.938c0,3.277,2.73,4.453,5.504,4.453c2.479,0,4.998-0.714,7.351-1.386l-1.009,5.881
	c-2.395,0.505-4.873,0.798-7.31,0.798c-6.679,0-12.518-2.016-12.518-10.292c0-2.227,0.882-11.678,12.056-11.678
	c6.891,0,10.67,3.234,10.67,9.074c0,1.05-0.084,2.1-0.294,3.15H165.515z M172.528,23.116c0-2.437-1.008-3.696-3.023-3.696
	c-2.27,0-3.527,1.89-3.738,3.696H172.528z"/>
<path fill="#FFFFFF" d="M198.271,33.618h-0.084c-1.891,2.059-4.242,3.065-7.184,3.065c-5.545,0-8.904-4.285-8.904-9.578
	c0-6.049,3.317-12.392,12.602-12.392c1.387,0,2.73,0.126,4.074,0.294c0.127-2.268,0.168-4.537,0.211-6.847h8.274
	c-0.336,4.369-0.714,8.485-0.966,12.938c-0.294,4.495-0.546,9.2-0.546,15.081h-7.604L198.271,33.618z M196.381,20.217
	c-4.243,0-6.301,3.108-6.301,6.427c0,2.269,1.218,4.327,3.737,4.327c4.537,0,4.58-6.553,4.621-10.502
	C197.769,20.301,197.095,20.217,196.381,20.217z"/>
<path fill="#F16529" d="M218.396,8.161c-0.463,4.705-1.387,20.668-1.513,28.019h-8.358c0.797-9.326,1.26-18.651,1.513-28.019
	H218.396z"/>
<path fill="#F16529" d="M219.612,36.18c0.714-6.343,1.008-12.602,1.092-20.962h8.4c-0.713,6.974-0.756,13.989-0.756,20.962H219.612z
	 M220.914,13.085l0.084-4.957h8.149l-0.211,4.957H220.914z"/>
<path fill="#F16529" d="M230.153,21.648l0.293-5.503h2.898v-2.394c0-3.613,1.766-5.923,7.016-5.923c1.975,0,3.99,0.294,5.882,0.84
	l0.252,5.377c-1.177-0.42-2.396-0.714-3.655-0.714c-1.68,0-2.352,0.756-2.311,2.814h4.705l-0.295,5.503h-4.326
	c-0.293,5.377-0.504,21.299-0.672,26.34h-8.233c0.462-5.041,0.673-20.963,0.967-26.34H230.153z"/>
<path fill="#F16529" d="M253.199,26.938c0,3.277,2.729,4.453,5.503,4.453c2.479,0,4.999-0.714,7.352-1.386l-1.009,5.881
	c-2.396,0.505-4.873,0.798-7.31,0.798c-6.68,0-12.519-2.016-12.519-10.292c0-2.227,0.882-11.678,12.056-11.678
	c6.891,0,10.67,3.234,10.67,9.074c0,1.05-0.084,2.1-0.293,3.15H253.199z M260.214,23.116c0-2.437-1.008-3.696-3.023-3.696
	c-2.27,0-3.528,1.89-3.738,3.696H260.214z"/>
<g>
	<path fill="#FFFFFF" d="M155.61,41.784h1.295v0.84h0.023c0.385-0.708,1.127-1.008,1.92-1.008c1.955,0,2.901,1.487,2.901,3.299
		c0,1.666-0.84,3.237-2.675,3.237c-0.792,0-1.645-0.288-2.075-0.973h-0.022v3.096h-1.367V41.784z M158.668,42.695
		c-1.151,0-1.737,0.875-1.737,2.195c0,1.246,0.635,2.183,1.737,2.183c1.248,0,1.716-1.104,1.716-2.183
		C160.384,43.762,159.796,42.695,158.668,42.695z"/>
	<path fill="#FFFFFF" d="M163.134,39.42h1.367v3.18h0.023c0.336-0.563,1.043-0.983,1.858-0.983c1.345,0,2.195,0.72,2.195,2.11v4.258
		h-1.367v-3.897c-0.024-0.971-0.407-1.392-1.212-1.392c-0.911,0-1.499,0.72-1.499,1.632v3.657h-1.367L163.134,39.42L163.134,39.42z"
		/>
	<path fill="#FFFFFF" d="M169.962,44.877c0-1.895,1.141-3.262,3.131-3.262s3.131,1.367,3.131,3.262c0,1.908-1.141,3.275-3.131,3.275
		S169.962,46.786,169.962,44.877z M174.854,44.877c0-1.066-0.539-2.182-1.763-2.182s-1.764,1.115-1.764,2.182
		c0,1.08,0.54,2.195,1.764,2.195C174.315,47.073,174.854,45.958,174.854,44.877z"/>
	<path fill="#FFFFFF" d="M176.97,41.784h1.031v-1.859h1.367v1.859h1.234v1.021h-1.234v3.311c0,0.563,0.049,0.852,0.66,0.852
		c0.191,0,0.384,0,0.574-0.049v1.057c-0.299,0.023-0.586,0.071-0.887,0.071c-1.428,0-1.691-0.552-1.716-1.583v-3.658h-1.03V41.784
		L176.97,41.784z"/>
	<path fill="#FFFFFF" d="M181.53,44.877c0-1.895,1.14-3.262,3.131-3.262c1.99,0,3.13,1.367,3.13,3.262
		c0,1.908-1.14,3.275-3.13,3.275C182.67,48.152,181.53,46.786,181.53,44.877z M186.424,44.877c0-1.066-0.54-2.182-1.763-2.182
		c-1.225,0-1.764,1.115-1.764,2.182c0,1.08,0.539,2.195,1.764,2.195C185.884,47.073,186.424,45.958,186.424,44.877z"/>
	<path fill="#FFFFFF" d="M194.896,47.661c0,1.858-1.092,2.782-3.047,2.782c-1.246,0-2.649-0.479-2.771-1.932h1.366
		c0.168,0.779,0.793,0.911,1.488,0.911c1.104,0,1.594-0.563,1.594-1.583v-0.947h-0.022c-0.384,0.685-1.092,1.092-1.858,1.092
		c-1.967,0-2.783-1.487-2.783-3.262c0-1.668,1.044-3.106,2.808-3.106c0.779,0,1.487,0.323,1.835,1.02h0.023v-0.852h1.367V47.661
		L194.896,47.661z M193.526,44.747c0-1.067-0.479-2.052-1.666-2.052c-1.211,0-1.631,1.128-1.631,2.158
		c0,1.021,0.49,2.051,1.631,2.051C193.071,46.904,193.526,45.801,193.526,44.747z"/>
	<path fill="#FFFFFF" d="M196.507,41.784h1.283v1.198h0.023c0.156-0.658,0.972-1.366,1.812-1.366c0.312,0,0.396,0.022,0.517,0.036
		v1.318c-0.191-0.022-0.396-0.061-0.588-0.061c-0.937,0-1.68,0.756-1.68,2.123v2.951h-1.367V41.784L196.507,41.784z"/>
	<path fill="#FFFFFF" d="M206.151,46.605c0,0.336,0.07,0.468,0.322,0.468c0.084,0,0.192,0,0.336-0.023v0.947
		c-0.203,0.071-0.636,0.155-0.863,0.155c-0.551,0-0.946-0.191-1.055-0.756c-0.541,0.527-1.416,0.756-2.146,0.756
		c-1.115,0-2.123-0.6-2.123-1.812c0-1.548,1.234-1.799,2.387-1.931c0.983-0.18,1.859-0.072,1.859-0.876
		c0-0.708-0.732-0.839-1.284-0.839c-0.769,0-1.308,0.312-1.367,0.981h-1.366c0.096-1.595,1.45-2.063,2.817-2.063
		c1.212,0,2.483,0.492,2.483,1.8V46.605L206.151,46.605z M204.784,44.877c-0.42,0.275-1.08,0.266-1.68,0.373
		c-0.588,0.096-1.115,0.311-1.115,1.031c0,0.611,0.779,0.791,1.26,0.791c0.6,0,1.535-0.313,1.535-1.176V44.877z"/>
	<path fill="#FFFFFF" d="M207.896,41.784h1.295v0.84h0.023c0.385-0.708,1.127-1.008,1.919-1.008c1.954,0,2.902,1.487,2.902,3.299
		c0,1.666-0.841,3.237-2.675,3.237c-0.793,0-1.645-0.288-2.075-0.973h-0.022v3.096h-1.367V41.784z M210.952,42.695
		c-1.151,0-1.738,0.875-1.738,2.195c0,1.246,0.637,2.183,1.738,2.183c1.248,0,1.716-1.104,1.716-2.183
		C212.668,43.762,212.08,42.695,210.952,42.695z"/>
	<path fill="#FFFFFF" d="M215.418,39.42h1.367v3.18h0.024c0.334-0.563,1.043-0.983,1.857-0.983c1.344,0,2.195,0.72,2.195,2.11v4.258
		h-1.368v-3.897c-0.022-0.971-0.407-1.392-1.211-1.392c-0.911,0-1.499,0.72-1.499,1.632v3.657h-1.367L215.418,39.42L215.418,39.42z"
		/>
	<path fill="#FFFFFF" d="M221.851,41.784h1.5l1.618,4.629h0.024l1.57-4.629h1.428l-2.411,6.536
		c-0.442,1.115-0.769,2.123-2.194,2.123c-0.324,0-0.636-0.024-0.947-0.071v-1.151c0.217,0.036,0.433,0.084,0.647,0.084
		c0.636,0,0.791-0.337,0.959-0.863l0.156-0.479L221.851,41.784z"/>
</g>
</svg>
