<?xml version="1.0" encoding="utf-8"?>
<!-- Generator: Adobe Illustrator 16.0.0, SVG Export Plug-In . SVG Version: 6.00 Build 0)  -->
<!DOCTYPE svg PUBLIC "-//W3C//DTD SVG 1.1 Tiny//EN" "http://www.w3.org/Graphics/SVG/1.1/DTD/svg11-tiny.dtd">
<svg version="1.1" baseProfile="tiny" id="Layer_1" xmlns="http://www.w3.org/2000/svg" xmlns:xlink="http://www.w3.org/1999/xlink"
	 x="0px" y="0px" width="50px" height="50px" viewBox="0 0 50 50" xml:space="preserve">
<path fill="#61BB4D" d="M44.03,11.863c0,1.319-0.664,2.387-1.486,2.387H7.458c-0.823,0-1.488-1.068-1.488-2.387l0,0
	c0-1.317,0.666-2.386,1.488-2.386h35.086C43.366,9.478,44.03,10.546,44.03,11.863L44.03,11.863z"/>
<path fill="#61BB4D" d="M44.03,25c0,1.317-0.664,2.385-1.486,2.385H7.458c-0.823,0-1.488-1.068-1.488-2.385l0,0
	c0-1.319,0.666-2.386,1.488-2.386h35.086C43.366,22.614,44.03,23.682,44.03,25L44.03,25z"/>
<path fill="#61BB4D" d="M44.03,38.136c0,1.318-0.664,2.387-1.486,2.387H7.458c-0.823,0-1.488-1.068-1.488-2.387l0,0
	c0-1.317,0.666-2.386,1.488-2.386h35.086C43.366,35.75,44.03,36.818,44.03,38.136L44.03,38.136z"/>
</svg>
