<?xml version="1.0" encoding="utf-8"?>
<!-- Generator: Adobe Illustrator 16.0.0, SVG Export Plug-In . SVG Version: 6.00 Build 0)  -->
<!DOCTYPE svg PUBLIC "-//W3C//DTD SVG 1.1 Tiny//EN" "http://www.w3.org/Graphics/SVG/1.1/DTD/svg11-tiny.dtd">
<svg version="1.1" baseProfile="tiny" id="Layer_1" xmlns="http://www.w3.org/2000/svg" xmlns:xlink="http://www.w3.org/1999/xlink"
	 x="0px" y="0px" width="50px" height="50px" viewBox="0 0 50 50" xml:space="preserve">
<path fill="#FFFFFF" d="M39.748,12.343c0,1.273-0.642,2.305-1.436,2.305H11.437c-0.794,0-1.437-1.031-1.437-2.305l0,0
	c0-1.272,0.643-2.303,1.437-2.303h26.875C39.106,10.04,39.748,11.071,39.748,12.343L39.748,12.343z"/>
<path fill="#FFFFFF" d="M39.748,25.027c0,1.272-0.642,2.303-1.436,2.303H11.437c-0.794,0-1.437-1.031-1.437-2.303l0,0
	c0-1.272,0.643-2.303,1.437-2.303h26.875C39.106,22.724,39.748,23.754,39.748,25.027L39.748,25.027z"/>
<path fill="#FFFFFF" d="M39.748,37.711c0,1.273-0.642,2.305-1.436,2.305H11.437c-0.794,0-1.437-1.031-1.437-2.305l0,0
	c0-1.273,0.643-2.303,1.437-2.303h26.875C39.106,35.408,39.748,36.438,39.748,37.711L39.748,37.711z"/>
</svg>
