<?xml version="1.0" encoding="utf-8"?>
<!-- Generator: Adobe Illustrator 16.0.0, SVG Export Plug-In . SVG Version: 6.00 Build 0)  -->
<!DOCTYPE svg PUBLIC "-//W3C//DTD SVG 1.1 Tiny//EN" "http://www.w3.org/Graphics/SVG/1.1/DTD/svg11-tiny.dtd">
<svg version="1.1" baseProfile="tiny" id="Layer_1" xmlns="http://www.w3.org/2000/svg" xmlns:xlink="http://www.w3.org/1999/xlink"
	 x="0px" y="0px" width="50px" height="50px" viewBox="0 0 50 50" xml:space="preserve">
<path fill-rule="evenodd" fill="#667680" d="M22.08,25.015c-2.665,0-5.33-0.006-7.996,0.004c-1.019,0.004-1.957-0.252-2.809-0.804
	c-1.723-1.119-3.445-2.239-5.155-3.375c-1.077-0.717-0.997-1.901,0.16-2.486c4.222-2.133,8.446-4.261,12.669-6.389
	c2.5-1.259,5.004-2.506,7.494-3.783c0.616-0.316,1.161-0.309,1.77,0.01c4.365,2.285,8.74,4.552,13.112,6.825
	c0.566,0.295,1.141,0.577,1.697,0.888c1.105,0.619,1.17,1.81,0.091,2.472c-2.982,1.829-5.99,3.615-8.982,5.429
	c-1.46,0.886-3.027,1.263-4.74,1.225C26.955,24.974,24.516,25.015,22.08,25.015z M39.854,17.315
	c-0.203-0.121-0.325-0.201-0.456-0.27c-3.87-2.014-7.745-4.02-11.608-6.047c-0.355-0.186-0.614-0.174-0.958-0.001
	c-5.265,2.663-10.534,5.313-15.802,7.968c-0.523,0.263-1.041,0.535-1.668,0.856c1.294,0.803,2.482,1.594,3.729,2.279
	c0.375,0.206,0.927,0.209,1.372,0.139c0.576-0.092,1.155-0.29,1.68-0.546c1.694-0.824,3.082-2.053,4.362-3.412
	c0.711-0.755,1.485-0.752,2.206-0.009c1.302,1.343,2.744,2.499,4.441,3.31c1.935,0.924,3.837,1.058,5.73-0.149
	c0.908-0.581,1.881-1.059,2.81-1.608C37.064,19.013,38.424,18.178,39.854,17.315z"/>
<path fill-rule="evenodd" fill="#667680" d="M5.389,25.276c0.005-0.679,0.674-1.439,1.375-1.492c0.179-0.013,0.383,0.15,0.558,0.262
	c2.798,1.807,5.592,3.622,8.389,5.43c1.853,1.199,3.712,2.385,5.557,3.594c0.284,0.186,0.485,0.178,0.774,0.01
	c4.21-2.441,8.433-4.861,12.643-7.304c2.485-1.443,4.951-2.919,7.436-4.364c0.148-0.086,0.39-0.058,0.576-0.021
	c0.156,0.031,0.296,0.149,0.44,0.234c0.975,0.576,0.993,1.794,0.014,2.371c-1.611,0.948-3.24,1.869-4.859,2.804
	c-5.284,3.051-10.567,6.096-15.845,9.154c-0.611,0.354-1.151,0.324-1.743-0.059c-4.854-3.143-9.714-6.271-14.577-9.398
	C5.671,26.205,5.376,25.839,5.389,25.276z"/>
<path fill-rule="evenodd" fill="#667680" d="M5.389,30.738c0.003-0.703,0.544-1.375,1.165-1.459c0.125-0.018,0.281,0.084,0.4,0.162
	c3.222,2.109,6.44,4.219,9.657,6.334c1.552,1.02,3.102,2.041,4.639,3.082c0.306,0.207,0.525,0.213,0.845,0.021
	c5.842-3.51,11.692-7.006,17.542-10.502c0.849-0.508,1.712-0.996,2.555-1.508c0.24-0.148,0.431-0.143,0.669-0.014
	c0.501,0.27,0.941,0.584,0.997,1.207c0.061,0.678-0.297,1.105-0.853,1.436c-3.061,1.82-6.115,3.65-9.169,5.479
	c-3.787,2.266-7.575,4.529-11.354,6.807c-0.625,0.375-1.191,0.355-1.785-0.045c-4.88-3.299-9.761-6.592-14.645-9.885
	C5.631,31.57,5.375,31.203,5.389,30.738z"/>
</svg>
