<?xml version="1.0" encoding="utf-8"?>
<!-- Generator: Adobe Illustrator 16.0.0, SVG Export Plug-In . SVG Version: 6.00 Build 0)  -->
<!DOCTYPE svg PUBLIC "-//W3C//DTD SVG 1.1 Tiny//EN" "http://www.w3.org/Graphics/SVG/1.1/DTD/svg11-tiny.dtd">
<svg version="1.1" baseProfile="tiny" id="Layer_1" xmlns="http://www.w3.org/2000/svg" xmlns:xlink="http://www.w3.org/1999/xlink"
	 x="0px" y="0px" width="50px" height="50px" viewBox="0 0 50 50" xml:space="preserve">
<path fill-rule="evenodd" fill="#FFFFFF" d="M22.221,25.012c-2.169,0-4.339-0.005-6.508,0.003c-0.83,0.003-1.593-0.205-2.287-0.654
	c-1.402-0.911-2.804-1.822-4.196-2.748c-0.876-0.583-0.811-1.548,0.13-2.023c3.436-1.736,6.875-3.468,10.313-5.201
	c2.034-1.024,4.073-2.04,6.099-3.079c0.502-0.257,0.945-0.252,1.441,0.008c3.554,1.86,7.114,3.705,10.673,5.556
	c0.461,0.24,0.929,0.469,1.382,0.722c0.9,0.504,0.953,1.474,0.074,2.012c-2.428,1.489-4.877,2.943-7.312,4.419
	c-1.188,0.722-2.465,1.028-3.858,0.997C26.188,24.979,24.204,25.012,22.221,25.012z M36.688,18.744
	c-0.165-0.098-0.265-0.164-0.372-0.219c-3.15-1.639-6.304-3.272-9.448-4.923c-0.29-0.151-0.5-0.142-0.78,0
	c-4.285,2.167-8.574,4.325-12.862,6.486c-0.425,0.213-0.847,0.435-1.357,0.697c1.054,0.653,2.021,1.297,3.035,1.855
	c0.304,0.167,0.754,0.17,1.116,0.113c0.468-0.075,0.94-0.235,1.368-0.444c1.378-0.67,2.508-1.671,3.551-2.777
	c0.578-0.614,1.208-0.612,1.796-0.007c1.06,1.093,2.233,2.034,3.614,2.693c1.576,0.753,3.124,0.861,4.665-0.121
	c0.74-0.473,1.531-0.862,2.287-1.31C34.418,20.126,35.523,19.447,36.688,18.744z"/>
<path fill-rule="evenodd" fill="#FFFFFF" d="M8.635,25.225c0.004-0.553,0.549-1.171,1.119-1.214
	c0.146-0.011,0.312,0.122,0.453,0.212c2.278,1.471,4.552,2.947,6.829,4.419c1.508,0.977,3.021,1.941,4.523,2.926
	c0.23,0.15,0.395,0.145,0.63,0.008c3.427-1.986,6.864-3.957,10.291-5.944c2.022-1.174,4.03-2.376,6.053-3.553
	c0.12-0.07,0.317-0.047,0.469-0.017c0.127,0.026,0.241,0.122,0.358,0.191c0.793,0.468,0.808,1.46,0.011,1.929
	c-1.311,0.772-2.637,1.522-3.955,2.283c-4.301,2.481-8.602,4.962-12.898,7.45c-0.497,0.287-0.937,0.264-1.418-0.049
	c-3.951-2.557-7.907-5.104-11.865-7.648C8.864,25.98,8.625,25.683,8.635,25.225z"/>
<path fill-rule="evenodd" fill="#FFFFFF" d="M8.635,29.67c0.002-0.572,0.442-1.119,0.948-1.188c0.101-0.016,0.229,0.068,0.326,0.131
	c2.622,1.719,5.243,3.436,7.86,5.156c1.264,0.828,2.525,1.664,3.775,2.51c0.25,0.168,0.428,0.172,0.688,0.018
	c4.756-2.857,9.517-5.703,14.279-8.549c0.691-0.414,1.394-0.811,2.079-1.229c0.195-0.119,0.352-0.114,0.545-0.01
	c0.408,0.219,0.766,0.475,0.811,0.982c0.051,0.551-0.241,0.9-0.693,1.17c-2.492,1.48-4.977,2.971-7.462,4.459
	c-3.084,1.844-6.167,3.684-9.243,5.539c-0.509,0.305-0.97,0.291-1.454-0.035c-3.972-2.686-7.945-5.367-11.92-8.047
	C8.832,30.346,8.624,30.049,8.635,29.67z"/>
</svg>
