<?xml version="1.0" encoding="utf-8"?>
<!-- Generator: Adobe Illustrator 16.0.0, SVG Export Plug-In . SVG Version: 6.00 Build 0)  -->
<!DOCTYPE svg PUBLIC "-//W3C//DTD SVG 1.1 Tiny//EN" "http://www.w3.org/Graphics/SVG/1.1/DTD/svg11-tiny.dtd">
<svg version="1.1" baseProfile="tiny" id="Layer_1" xmlns="http://www.w3.org/2000/svg" xmlns:xlink="http://www.w3.org/1999/xlink"
	 x="0px" y="0px" width="50px" height="50px" viewBox="0 0 50 50" xml:space="preserve">
<path fill-rule="evenodd" fill="#667680" d="M39.579,39.937c-9.733,0-19.407,0-29.17,0c0.047-3.842,1.238-7.148,4.07-9.765
	c1.281-1.184,2.729-2.126,4.421-2.616c0.282-0.084,0.677-0.046,0.933,0.093c3.472,1.896,6.922,1.89,10.389-0.01
	c0.259-0.143,0.661-0.206,0.93-0.114C36.328,29.296,39.824,34.427,39.579,39.937z"/>
<path fill-rule="evenodd" fill="#667680" d="M32.399,17.487c0.078,4.178-3.376,7.942-7.336,7.993
	c-3.749,0.049-7.343-3.607-7.437-7.562c-0.103-4.352,3.05-7.783,7.216-7.854C29.047,9.992,32.321,13.208,32.399,17.487z"/>
</svg>
