<?xml version="1.0" encoding="utf-8"?>
<!-- Generator: Adobe Illustrator 16.0.0, SVG Export Plug-In . SVG Version: 6.00 Build 0)  -->
<!DOCTYPE svg PUBLIC "-//W3C//DTD SVG 1.1 Tiny//EN" "http://www.w3.org/Graphics/SVG/1.1/DTD/svg11-tiny.dtd">
<svg version="1.1" baseProfile="tiny" id="Layer_1" xmlns="http://www.w3.org/2000/svg" xmlns:xlink="http://www.w3.org/1999/xlink"
	 x="0px" y="0px" width="50px" height="50px" viewBox="0 0 50 50" xml:space="preserve">
<path fill-rule="evenodd" fill="#FFFFFF" d="M39.563,39.921c-9.723,0-19.386,0-29.138,0c0.047-3.838,1.236-7.141,4.065-9.755
	c1.28-1.182,2.727-2.123,4.417-2.614c0.282-0.082,0.676-0.045,0.932,0.094c3.468,1.894,6.915,1.889,10.377-0.01
	c0.258-0.142,0.66-0.206,0.93-0.113C36.316,29.291,39.809,34.417,39.563,39.921z"/>
<path fill-rule="evenodd" fill="#FFFFFF" d="M32.391,17.496c0.078,4.173-3.371,7.933-7.328,7.985
	c-3.745,0.048-7.335-3.604-7.429-7.554c-0.103-4.347,3.046-7.775,7.208-7.847C29.043,10.008,32.313,13.221,32.391,17.496z"/>
</svg>
