<?xml version="1.0" encoding="utf-8"?>
<!-- Generator: Adobe Illustrator 16.0.0, SVG Export Plug-In . SVG Version: 6.00 Build 0)  -->
<!DOCTYPE svg PUBLIC "-//W3C//DTD SVG 1.1 Tiny//EN" "http://www.w3.org/Graphics/SVG/1.1/DTD/svg11-tiny.dtd">
<svg version="1.1" baseProfile="tiny" id="Layer_1" xmlns="http://www.w3.org/2000/svg" xmlns:xlink="http://www.w3.org/1999/xlink"
	 x="0px" y="0px" width="50px" height="50px" viewBox="0 0 50 50" xml:space="preserve">
<path fill="#FFFFFF" d="M41.104,32.412c-0.025-0.026-0.053-0.05-0.078-0.069l-4.608-3.647c-0.404-0.381-0.922-0.582-1.466-0.582
	c-0.571,0-1.11,0.223-1.516,0.626c-0.044,0.043-0.082,0.092-0.115,0.142l-1.359,2.044l-0.058,0.084l-0.098-0.025l-0.254-0.068
	c-0.468-0.125-2.289-0.825-6.081-4.613c-3.821-3.821-4.504-5.622-4.621-6.081l-0.066-0.252l-0.024-0.097l0.085-0.059l2.044-1.359
	c0.053-0.033,0.1-0.071,0.141-0.115c0.817-0.821,0.834-2.135,0.036-2.997l-3.64-4.591c-0.021-0.029-0.043-0.051-0.068-0.078
	c-0.441-0.44-1.063-0.694-1.705-0.694c-0.543,0-1.051,0.196-1.426,0.55l-3.701,3.222c-0.014,0.013-0.029,0.026-0.047,0.045
	c-1.637,1.633-0.084,6.034,0.431,7.343c1.465,3.725,3.99,7.494,7.11,10.614c5.43,5.43,11.984,8.269,15.652,8.269
	c1.044,0,1.821-0.247,2.311-0.732c0.011-0.014,0.021-0.023,0.029-0.033l3.239-3.72C42.041,34.707,41.97,33.279,41.104,32.412z
	 M40.065,34.11l-3.394,3.894l-0.022,0.029l-0.034,0.013l-0.089,0.033c-0.141,0.049-0.404,0.111-0.853,0.111
	c-2.75,0-9.021-2.4-14.358-7.734c-6.207-6.206-8.336-13.626-7.614-15.235l0.032-0.075l0.014-0.03l0.023-0.019l3.891-3.385
	l0.113-0.098l0.092,0.117l3.984,5.024l0.096,0.125l-0.129,0.084l-2.103,1.398c-0.024,0.017-0.048,0.033-0.068,0.052
	c-0.403,0.322-0.64,0.809-0.669,1.36c-0.06,1.138,0.793,3.417,5.198,7.818c4.299,4.302,6.559,5.202,7.697,5.202
	c0.607,0,1.136-0.236,1.484-0.669c0.019-0.022,0.035-0.046,0.054-0.072l1.397-2.104l0.086-0.126l0.122,0.094l5.028,3.985
	l0.117,0.092L40.065,34.11z"/>
</svg>
