<?xml version="1.0" encoding="utf-8"?>
<!-- Generator: Adobe Illustrator 16.0.0, SVG Export Plug-In . SVG Version: 6.00 Build 0)  -->
<!DOCTYPE svg PUBLIC "-//W3C//DTD SVG 1.1 Tiny//EN" "http://www.w3.org/Graphics/SVG/1.1/DTD/svg11-tiny.dtd">
<svg version="1.1" baseProfile="tiny" id="Layer_1" xmlns="http://www.w3.org/2000/svg" xmlns:xlink="http://www.w3.org/1999/xlink"
	 x="0px" y="0px" width="50px" height="50px" viewBox="0 0 50 50" xml:space="preserve">
<g>
	<path fill="#0084B4" d="M22.165,28.975v-1.208c0-0.917,0.187-1.691,0.561-2.324c0.375-0.632,1.04-1.247,1.995-1.845
		c0.758-0.477,1.304-0.909,1.636-1.292c0.333-0.385,0.498-0.824,0.498-1.321c0-0.393-0.178-0.705-0.532-0.933
		c-0.356-0.23-0.82-0.344-1.391-0.344c-1.414,0-3.066,0.5-4.957,1.502l-1.953-3.819c2.332-1.33,4.766-1.995,7.302-1.995
		c2.089,0,3.727,0.458,4.915,1.375c1.189,0.918,1.783,2.167,1.783,3.75c0,1.133-0.264,2.113-0.793,2.943
		c-0.528,0.828-1.374,1.612-2.534,2.353c-0.984,0.635-1.6,1.101-1.848,1.396c-0.247,0.295-0.371,0.645-0.371,1.046v0.716H22.165z
		 M21.561,33.891c0-0.862,0.25-1.525,0.751-1.995c0.5-0.469,1.237-0.701,2.21-0.701c0.937,0,1.655,0.236,2.156,0.708
		c0.501,0.474,0.751,1.135,0.751,1.988c0,0.852-0.26,1.511-0.779,1.98c-0.52,0.468-1.229,0.701-2.128,0.701
		c-0.926,0-1.651-0.231-2.177-0.693C21.822,35.414,21.561,34.751,21.561,33.891z"/>
</g>
<g>
	<path fill="#0084B4" d="M25.021,44.045C14.533,44.045,6,35.512,6,25.023C6,14.534,14.533,6,25.021,6
		c10.489,0,19.022,8.534,19.022,19.023C44.044,35.512,35.511,44.045,25.021,44.045z M25.021,7.924
		c-9.427,0-17.097,7.67-17.097,17.099c0,9.427,7.67,17.098,17.097,17.098c9.428,0,17.099-7.671,17.099-17.098
		C42.12,15.594,34.449,7.924,25.021,7.924z"/>
</g>
</svg>
