<?xml version="1.0" encoding="utf-8"?>
<!-- Generator: Adobe Illustrator 16.0.0, SVG Export Plug-In . SVG Version: 6.00 Build 0)  -->
<!DOCTYPE svg PUBLIC "-//W3C//DTD SVG 1.1 Tiny//EN" "http://www.w3.org/Graphics/SVG/1.1/DTD/svg11-tiny.dtd">
<svg version="1.1" baseProfile="tiny" id="Layer_1" xmlns="http://www.w3.org/2000/svg" xmlns:xlink="http://www.w3.org/1999/xlink"
	 x="0px" y="0px" width="50px" height="50px" viewBox="0 0 50 50" xml:space="preserve">
<path fill="#FFFFFF" d="M42.931,11.662c1.242,1.243,1.242,3.256,0,4.5L20.753,38.337c-1.243,1.244-3.257,1.244-4.5,0l0,0
	c-1.243-1.241-1.242-3.256,0-4.498l22.179-22.177C39.676,10.419,41.688,10.419,42.931,11.662L42.931,11.662z"/>
<path fill="#FFFFFF" d="M20.753,38.337c-1.243,1.244-3.257,1.244-4.5,0l-9.321-9.32c-1.243-1.244-1.243-3.256,0-4.5l0,0
	c1.243-1.243,3.255-1.241,4.499,0.002l9.321,9.32C21.995,35.081,21.996,37.096,20.753,38.337L20.753,38.337z"/>
</svg>
